%TF.GenerationSoftware,KiCad,Pcbnew,7.0.6*%
%TF.CreationDate,2023-07-31T04:45:07-07:00*%
%TF.ProjectId,LED_Wled,4c45445f-576c-4656-942e-6b696361645f,rev?*%
%TF.SameCoordinates,Original*%
%TF.FileFunction,Soldermask,Bot*%
%TF.FilePolarity,Negative*%
%FSLAX46Y46*%
G04 Gerber Fmt 4.6, Leading zero omitted, Abs format (unit mm)*
G04 Created by KiCad (PCBNEW 7.0.6) date 2023-07-31 04:45:07*
%MOMM*%
%LPD*%
G01*
G04 APERTURE LIST*
G04 Aperture macros list*
%AMRoundRect*
0 Rectangle with rounded corners*
0 $1 Rounding radius*
0 $2 $3 $4 $5 $6 $7 $8 $9 X,Y pos of 4 corners*
0 Add a 4 corners polygon primitive as box body*
4,1,4,$2,$3,$4,$5,$6,$7,$8,$9,$2,$3,0*
0 Add four circle primitives for the rounded corners*
1,1,$1+$1,$2,$3*
1,1,$1+$1,$4,$5*
1,1,$1+$1,$6,$7*
1,1,$1+$1,$8,$9*
0 Add four rect primitives between the rounded corners*
20,1,$1+$1,$2,$3,$4,$5,0*
20,1,$1+$1,$4,$5,$6,$7,0*
20,1,$1+$1,$6,$7,$8,$9,0*
20,1,$1+$1,$8,$9,$2,$3,0*%
G04 Aperture macros list end*
%ADD10RoundRect,0.250001X-1.099999X1.099999X-1.099999X-1.099999X1.099999X-1.099999X1.099999X1.099999X0*%
%ADD11C,2.700000*%
%ADD12O,2.000000X1.700000*%
%ADD13RoundRect,0.250000X-0.750000X0.600000X-0.750000X-0.600000X0.750000X-0.600000X0.750000X0.600000X0*%
%ADD14C,1.200000*%
%ADD15R,3.500000X3.500000*%
%ADD16RoundRect,0.750000X1.000000X-0.750000X1.000000X0.750000X-1.000000X0.750000X-1.000000X-0.750000X0*%
%ADD17RoundRect,0.875000X0.875000X-0.875000X0.875000X0.875000X-0.875000X0.875000X-0.875000X-0.875000X0*%
%ADD18C,0.650000*%
%ADD19O,2.100000X1.000000*%
%ADD20O,1.800000X1.000000*%
%ADD21O,3.800000X5.500000*%
%ADD22O,3.800000X5.300000*%
%ADD23R,1.500000X1.500000*%
%ADD24C,1.500000*%
%ADD25R,0.750000X1.000000*%
G04 APERTURE END LIST*
D10*
%TO.C,J4*%
X203666000Y-144598500D03*
D11*
X203666000Y-148558500D03*
X203666000Y-152518500D03*
%TD*%
D10*
%TO.C,J1*%
X208280000Y-144579200D03*
D11*
X208280000Y-148539200D03*
X208280000Y-152499200D03*
%TD*%
D12*
%TO.C,J11*%
X227324600Y-49819400D03*
D13*
X227324600Y-47319400D03*
D14*
X225324600Y-45719400D03*
%TD*%
D15*
%TO.C,J2*%
X194825700Y-147060400D03*
D16*
X194825700Y-153060400D03*
D17*
X199525700Y-150060400D03*
%TD*%
D18*
%TO.C,J8*%
X203185800Y-95396800D03*
X203185800Y-89616800D03*
D19*
X202665800Y-96826800D03*
D20*
X206865800Y-96826800D03*
D19*
X202665800Y-88186800D03*
D20*
X206865800Y-88186800D03*
%TD*%
D12*
%TO.C,J15*%
X227365400Y-59547200D03*
D13*
X227365400Y-57047200D03*
D14*
X225365400Y-55447200D03*
%TD*%
%TO.C,J12*%
X225365400Y-75239200D03*
D13*
X227365400Y-76839200D03*
D12*
X227365400Y-79339200D03*
%TD*%
D14*
%TO.C,J13*%
X225365400Y-65313200D03*
D13*
X227365400Y-66913200D03*
D12*
X227365400Y-69413200D03*
%TD*%
D21*
%TO.C,F1*%
X197053200Y-141986000D03*
D22*
X197053200Y-133986000D03*
%TD*%
D23*
%TO.C,J6*%
X207700000Y-109000000D03*
%TD*%
D24*
%TO.C,U4*%
X203849600Y-83464400D03*
X203849600Y-80924400D03*
X203849600Y-78384400D03*
X196149600Y-78384400D03*
X196149600Y-80924400D03*
X196149600Y-83464400D03*
%TD*%
D23*
%TO.C,J3*%
X191770000Y-83312000D03*
%TD*%
D25*
%TO.C,SW2*%
X198018400Y-61676800D03*
X198018400Y-55676800D03*
X194268400Y-61676800D03*
X194268400Y-55676800D03*
%TD*%
%TO.C,SW1*%
X201676000Y-55676800D03*
X201676000Y-61676800D03*
X205426000Y-55676800D03*
X205426000Y-61676800D03*
%TD*%
M02*
