M48
; DRILL file {KiCad 7.0.6} date Mon Jul 31 04:45:07 2023
; FORMAT={-:-/ absolute / inch / decimal}
; #@! TF.CreationDate,2023-07-31T04:45:07-07:00
; #@! TF.GenerationSoftware,Kicad,Pcbnew,7.0.6
; #@! TF.FileFunction,Plated,1,2,PTH
FMAT,2
INCH
; #@! TA.AperFunction,Plated,PTH,ViaDrill
T1C0.0079
; #@! TA.AperFunction,Plated,PTH,ComponentDrill
T2C0.0079
; #@! TA.AperFunction,Plated,PTH,ViaDrill
T3C0.0118
; #@! TA.AperFunction,Plated,PTH,ViaDrill
T4C0.0157
; #@! TA.AperFunction,Plated,PTH,ViaDrill
T5C0.0197
; #@! TA.AperFunction,Plated,PTH,ComponentDrill
T6C0.0236
; #@! TA.AperFunction,Plated,PTH,ComponentDrill
T7C0.0300
; #@! TA.AperFunction,Plated,PTH,ComponentDrill
T8C0.0394
; #@! TA.AperFunction,Plated,PTH,ComponentDrill
T9C0.0669
; #@! TA.AperFunction,Plated,PTH,ComponentDrill
T10C0.0787
%
G90
G05
T1
X7.544Y-2.65
X7.56Y-2.168
X7.57Y-2.1269
X7.572Y-2.372
X7.5737Y-2.4
X7.576Y-1.8769
X7.6Y-2.814
X7.602Y-2.868
X7.626Y-2.836
X7.6307Y-1.8375
X7.6311Y-1.8139
X7.632Y-1.864
X7.634Y-1.892
X7.648Y-2.608
X7.648Y-3.024
X7.65Y-2.876
X7.6629Y-3.7051
X7.666Y-3.042
X7.67Y-2.806
X7.68Y-2.602
X7.682Y-3.024
X7.6865Y-3.7062
X7.692Y-2.856
X7.696Y-2.378
X7.696Y-3.578
X7.7Y-2.66
X7.7096Y-3.7017
X7.714Y-3.024
X7.714Y-3.53
X7.724Y-2.826
X7.726Y-3.626
X7.736Y-2.64
X7.748Y-3.696
X7.756Y-2.606
X7.764Y-3.476
X7.766Y-3.426
X7.766Y-3.67
X7.768Y-2.64
X7.776Y-3.2664
X7.776Y-3.29
X7.78Y-3.104
X7.78Y-3.1381
X7.786Y-3.682
X7.7927Y-3.3103
X7.812Y-3.518
X7.814Y-3.102
X7.82Y-3.36
X7.83Y-3.076
X7.838Y-3.1
X7.868Y-2.586
X7.894Y-2.336
X7.894Y-2.426
X7.9Y-2.558
X7.918Y-3.134
X7.93Y-2.586
X7.9453Y-3.2947
X7.95Y-3.03
X7.9616Y-3.2776
X7.962Y-3.13
X7.9764Y-3.2517
X8.038Y-2.572
X8.042Y-2.988
X8.048Y-2.42
X8.056Y-3.018
X8.062Y-2.372
X8.112Y-3.314
X8.128Y-1.922
X8.13Y-1.828
X8.13Y-1.876
X8.132Y-2.534
X8.138Y-3.3148
X8.152Y-1.962
X8.158Y-2.344
X8.16Y-2.538
X8.188Y-2.722
X8.25Y-3.22
X8.25Y-3.356
X8.33Y-1.92
X8.356Y-2.29
X8.37Y-3.076
X8.402Y-2.662
T2
X7.7598Y-2.0533
X7.7598Y-2.1084
X7.7874Y-2.0257
X7.7874Y-2.0809
X7.7874Y-2.136
X7.8149Y-2.0533
X7.8149Y-2.1084
X7.8425Y-2.0257
X7.8425Y-2.0809
X7.8425Y-2.136
X7.8701Y-2.0533
X7.8701Y-2.1084
T3
X7.502Y-3.848
X7.506Y-4.758
X7.506Y-4.788
X7.506Y-4.82
X7.506Y-4.854
X7.506Y-4.888
X7.506Y-4.922
X7.506Y-4.954
X7.5296Y-3.5941
X7.57Y-1.828
X7.576Y-1.776
X7.578Y-4.784
X7.5992Y-3.2768
X7.618Y-1.768
X7.618Y-5.324
X7.618Y-5.354
X7.618Y-5.382
X7.618Y-5.412
X7.64Y-2.5253
X7.67Y-1.76
X7.682Y-5.092
X7.682Y-5.162
X7.718Y-4.9859
X7.8019Y-5.112
X7.854Y-5.372
X7.8541Y-3.6487
X7.862Y-2.916
X7.864Y-5.162
X7.876Y-4.86
X7.878Y-3.568
X7.884Y-3.78
X7.89Y-2.898
X7.892Y-3.204
X7.896Y-4.77
X7.914Y-4.874
X8.246Y-2.908
X8.356Y-2.908
T4
X7.9847Y-5.0807
X7.9847Y-5.2933
X7.9847Y-5.5138
T5
X7.544Y-3.8461
X7.576Y-3.098
X7.782Y-3.04
X7.83Y-2.798
X7.9Y-3.868
X7.95Y-4.29
X8.02Y-4.304
X8.034Y-4.346
X8.062Y-4.322
T7
X7.7224Y-3.086
X7.7224Y-3.186
X7.7224Y-3.286
X8.0256Y-3.086
X8.0256Y-3.186
X8.0256Y-3.286
T8
X8.9498Y-1.863
X8.9498Y-1.9614
X8.9514Y-2.246
X8.9514Y-2.3444
X8.9514Y-2.6344
X8.9514Y-2.7328
X8.9514Y-3.0252
X8.9514Y-3.1236
T9
X8.0183Y-5.6929
X8.0183Y-5.8488
X8.0183Y-6.0047
X8.2Y-5.6921
X8.2Y-5.848
X8.2Y-6.0039
T6
G00X7.9573Y-3.4719
M15
G01X8.0006Y-3.4719
M16
G05
G00X7.9573Y-3.8121
M15
G01X8.0006Y-3.8121
M16
G05
G00X8.1286Y-3.4719
M15
G01X8.1601Y-3.4719
M16
G05
G00X8.1286Y-3.8121
M15
G01X8.1601Y-3.8121
M16
G05
T8
G00X7.6309Y-5.7898
M15
G01X7.7097Y-5.7898
M16
G05
G00X7.6309Y-6.026
M15
G01X7.7097Y-6.026
M16
G05
G00X7.8553Y-5.9473
M15
G01X7.8553Y-5.8685
M16
G05
T10
G00X7.758Y-5.3046
M15
G01X7.758Y-5.2455
M16
G05
G00X7.758Y-5.6195
M15
G01X7.758Y-5.5605
M16
G05
T0
M30
