%TF.GenerationSoftware,KiCad,Pcbnew,7.0.6*%
%TF.CreationDate,2023-07-31T04:45:07-07:00*%
%TF.ProjectId,LED_Wled,4c45445f-576c-4656-942e-6b696361645f,rev?*%
%TF.SameCoordinates,Original*%
%TF.FileFunction,Legend,Bot*%
%TF.FilePolarity,Positive*%
%FSLAX46Y46*%
G04 Gerber Fmt 4.6, Leading zero omitted, Abs format (unit mm)*
G04 Created by KiCad (PCBNEW 7.0.6) date 2023-07-31 04:45:07*
%MOMM*%
%LPD*%
G01*
G04 APERTURE LIST*
G04 Aperture macros list*
%AMRoundRect*
0 Rectangle with rounded corners*
0 $1 Rounding radius*
0 $2 $3 $4 $5 $6 $7 $8 $9 X,Y pos of 4 corners*
0 Add a 4 corners polygon primitive as box body*
4,1,4,$2,$3,$4,$5,$6,$7,$8,$9,$2,$3,0*
0 Add four circle primitives for the rounded corners*
1,1,$1+$1,$2,$3*
1,1,$1+$1,$4,$5*
1,1,$1+$1,$6,$7*
1,1,$1+$1,$8,$9*
0 Add four rect primitives between the rounded corners*
20,1,$1+$1,$2,$3,$4,$5,0*
20,1,$1+$1,$4,$5,$6,$7,0*
20,1,$1+$1,$6,$7,$8,$9,0*
20,1,$1+$1,$8,$9,$2,$3,0*%
G04 Aperture macros list end*
%ADD10C,0.250000*%
%ADD11C,0.125000*%
%ADD12C,0.100000*%
%ADD13C,0.120000*%
%ADD14RoundRect,0.250001X-1.099999X1.099999X-1.099999X-1.099999X1.099999X-1.099999X1.099999X1.099999X0*%
%ADD15C,2.700000*%
%ADD16O,2.000000X1.700000*%
%ADD17RoundRect,0.250000X-0.750000X0.600000X-0.750000X-0.600000X0.750000X-0.600000X0.750000X0.600000X0*%
%ADD18C,1.200000*%
%ADD19R,3.500000X3.500000*%
%ADD20RoundRect,0.750000X1.000000X-0.750000X1.000000X0.750000X-1.000000X0.750000X-1.000000X-0.750000X0*%
%ADD21RoundRect,0.875000X0.875000X-0.875000X0.875000X0.875000X-0.875000X0.875000X-0.875000X-0.875000X0*%
%ADD22C,0.650000*%
%ADD23O,2.100000X1.000000*%
%ADD24O,1.800000X1.000000*%
%ADD25O,3.800000X5.500000*%
%ADD26O,3.800000X5.300000*%
%ADD27R,1.500000X1.500000*%
%ADD28C,1.500000*%
%ADD29R,0.750000X1.000000*%
G04 APERTURE END LIST*
D10*
X259763448Y-70310600D02*
X259858686Y-70358219D01*
X259858686Y-70358219D02*
X260049162Y-70358219D01*
X260049162Y-70358219D02*
X260144400Y-70310600D01*
X260144400Y-70310600D02*
X260192019Y-70215361D01*
X260192019Y-70215361D02*
X260192019Y-69834409D01*
X260192019Y-69834409D02*
X260144400Y-69739171D01*
X260144400Y-69739171D02*
X260049162Y-69691552D01*
X260049162Y-69691552D02*
X259858686Y-69691552D01*
X259858686Y-69691552D02*
X259763448Y-69739171D01*
X259763448Y-69739171D02*
X259715829Y-69834409D01*
X259715829Y-69834409D02*
X259715829Y-69929647D01*
X259715829Y-69929647D02*
X260192019Y-70024885D01*
X258858686Y-70358219D02*
X258858686Y-69834409D01*
X258858686Y-69834409D02*
X258906305Y-69739171D01*
X258906305Y-69739171D02*
X259001543Y-69691552D01*
X259001543Y-69691552D02*
X259192019Y-69691552D01*
X259192019Y-69691552D02*
X259287257Y-69739171D01*
X258858686Y-70310600D02*
X258953924Y-70358219D01*
X258953924Y-70358219D02*
X259192019Y-70358219D01*
X259192019Y-70358219D02*
X259287257Y-70310600D01*
X259287257Y-70310600D02*
X259334876Y-70215361D01*
X259334876Y-70215361D02*
X259334876Y-70120123D01*
X259334876Y-70120123D02*
X259287257Y-70024885D01*
X259287257Y-70024885D02*
X259192019Y-69977266D01*
X259192019Y-69977266D02*
X258953924Y-69977266D01*
X258953924Y-69977266D02*
X258858686Y-69929647D01*
X258430114Y-70310600D02*
X258334876Y-70358219D01*
X258334876Y-70358219D02*
X258144400Y-70358219D01*
X258144400Y-70358219D02*
X258049162Y-70310600D01*
X258049162Y-70310600D02*
X258001543Y-70215361D01*
X258001543Y-70215361D02*
X258001543Y-70167742D01*
X258001543Y-70167742D02*
X258049162Y-70072504D01*
X258049162Y-70072504D02*
X258144400Y-70024885D01*
X258144400Y-70024885D02*
X258287257Y-70024885D01*
X258287257Y-70024885D02*
X258382495Y-69977266D01*
X258382495Y-69977266D02*
X258430114Y-69882028D01*
X258430114Y-69882028D02*
X258430114Y-69834409D01*
X258430114Y-69834409D02*
X258382495Y-69739171D01*
X258382495Y-69739171D02*
X258287257Y-69691552D01*
X258287257Y-69691552D02*
X258144400Y-69691552D01*
X258144400Y-69691552D02*
X258049162Y-69739171D01*
X257668209Y-69691552D02*
X257430114Y-70358219D01*
X257192019Y-69691552D02*
X257430114Y-70358219D01*
X257430114Y-70358219D02*
X257525352Y-70596314D01*
X257525352Y-70596314D02*
X257572971Y-70643933D01*
X257572971Y-70643933D02*
X257668209Y-70691552D01*
X256334876Y-70358219D02*
X256811066Y-70358219D01*
X256811066Y-70358219D02*
X256811066Y-69358219D01*
X255620590Y-70310600D02*
X255715828Y-70358219D01*
X255715828Y-70358219D02*
X255906304Y-70358219D01*
X255906304Y-70358219D02*
X256001542Y-70310600D01*
X256001542Y-70310600D02*
X256049161Y-70215361D01*
X256049161Y-70215361D02*
X256049161Y-69834409D01*
X256049161Y-69834409D02*
X256001542Y-69739171D01*
X256001542Y-69739171D02*
X255906304Y-69691552D01*
X255906304Y-69691552D02*
X255715828Y-69691552D01*
X255715828Y-69691552D02*
X255620590Y-69739171D01*
X255620590Y-69739171D02*
X255572971Y-69834409D01*
X255572971Y-69834409D02*
X255572971Y-69929647D01*
X255572971Y-69929647D02*
X256049161Y-70024885D01*
X254715828Y-70358219D02*
X254715828Y-69358219D01*
X254715828Y-70310600D02*
X254811066Y-70358219D01*
X254811066Y-70358219D02*
X255001542Y-70358219D01*
X255001542Y-70358219D02*
X255096780Y-70310600D01*
X255096780Y-70310600D02*
X255144399Y-70262980D01*
X255144399Y-70262980D02*
X255192018Y-70167742D01*
X255192018Y-70167742D02*
X255192018Y-69882028D01*
X255192018Y-69882028D02*
X255144399Y-69786790D01*
X255144399Y-69786790D02*
X255096780Y-69739171D01*
X255096780Y-69739171D02*
X255001542Y-69691552D01*
X255001542Y-69691552D02*
X254811066Y-69691552D01*
X254811066Y-69691552D02*
X254715828Y-69739171D01*
X253477732Y-70358219D02*
X253477732Y-69691552D01*
X253477732Y-69882028D02*
X253430113Y-69786790D01*
X253430113Y-69786790D02*
X253382494Y-69739171D01*
X253382494Y-69739171D02*
X253287256Y-69691552D01*
X253287256Y-69691552D02*
X253192018Y-69691552D01*
X252477732Y-70310600D02*
X252572970Y-70358219D01*
X252572970Y-70358219D02*
X252763446Y-70358219D01*
X252763446Y-70358219D02*
X252858684Y-70310600D01*
X252858684Y-70310600D02*
X252906303Y-70215361D01*
X252906303Y-70215361D02*
X252906303Y-69834409D01*
X252906303Y-69834409D02*
X252858684Y-69739171D01*
X252858684Y-69739171D02*
X252763446Y-69691552D01*
X252763446Y-69691552D02*
X252572970Y-69691552D01*
X252572970Y-69691552D02*
X252477732Y-69739171D01*
X252477732Y-69739171D02*
X252430113Y-69834409D01*
X252430113Y-69834409D02*
X252430113Y-69929647D01*
X252430113Y-69929647D02*
X252906303Y-70024885D01*
X252096779Y-69691552D02*
X251858684Y-70358219D01*
X251858684Y-70358219D02*
X251620589Y-69691552D01*
X251239636Y-70262980D02*
X251192017Y-70310600D01*
X251192017Y-70310600D02*
X251239636Y-70358219D01*
X251239636Y-70358219D02*
X251287255Y-70310600D01*
X251287255Y-70310600D02*
X251239636Y-70262980D01*
X251239636Y-70262980D02*
X251239636Y-70358219D01*
X250049160Y-69453457D02*
X250001541Y-69405838D01*
X250001541Y-69405838D02*
X249906303Y-69358219D01*
X249906303Y-69358219D02*
X249668208Y-69358219D01*
X249668208Y-69358219D02*
X249572970Y-69405838D01*
X249572970Y-69405838D02*
X249525351Y-69453457D01*
X249525351Y-69453457D02*
X249477732Y-69548695D01*
X249477732Y-69548695D02*
X249477732Y-69643933D01*
X249477732Y-69643933D02*
X249525351Y-69786790D01*
X249525351Y-69786790D02*
X250096779Y-70358219D01*
X250096779Y-70358219D02*
X249477732Y-70358219D01*
X249049160Y-70262980D02*
X249001541Y-70310600D01*
X249001541Y-70310600D02*
X249049160Y-70358219D01*
X249049160Y-70358219D02*
X249096779Y-70310600D01*
X249096779Y-70310600D02*
X249049160Y-70262980D01*
X249049160Y-70262980D02*
X249049160Y-70358219D01*
X248382494Y-69358219D02*
X248287256Y-69358219D01*
X248287256Y-69358219D02*
X248192018Y-69405838D01*
X248192018Y-69405838D02*
X248144399Y-69453457D01*
X248144399Y-69453457D02*
X248096780Y-69548695D01*
X248096780Y-69548695D02*
X248049161Y-69739171D01*
X248049161Y-69739171D02*
X248049161Y-69977266D01*
X248049161Y-69977266D02*
X248096780Y-70167742D01*
X248096780Y-70167742D02*
X248144399Y-70262980D01*
X248144399Y-70262980D02*
X248192018Y-70310600D01*
X248192018Y-70310600D02*
X248287256Y-70358219D01*
X248287256Y-70358219D02*
X248382494Y-70358219D01*
X248382494Y-70358219D02*
X248477732Y-70310600D01*
X248477732Y-70310600D02*
X248525351Y-70262980D01*
X248525351Y-70262980D02*
X248572970Y-70167742D01*
X248572970Y-70167742D02*
X248620589Y-69977266D01*
X248620589Y-69977266D02*
X248620589Y-69739171D01*
X248620589Y-69739171D02*
X248572970Y-69548695D01*
X248572970Y-69548695D02*
X248525351Y-69453457D01*
X248525351Y-69453457D02*
X248477732Y-69405838D01*
X248477732Y-69405838D02*
X248382494Y-69358219D01*
X247096780Y-70358219D02*
X247668208Y-70358219D01*
X247382494Y-70358219D02*
X247382494Y-69358219D01*
X247382494Y-69358219D02*
X247477732Y-69501076D01*
X247477732Y-69501076D02*
X247572970Y-69596314D01*
X247572970Y-69596314D02*
X247668208Y-69643933D01*
X258501542Y-71063457D02*
X258453923Y-71015838D01*
X258453923Y-71015838D02*
X258358685Y-70968219D01*
X258358685Y-70968219D02*
X258120590Y-70968219D01*
X258120590Y-70968219D02*
X258025352Y-71015838D01*
X258025352Y-71015838D02*
X257977733Y-71063457D01*
X257977733Y-71063457D02*
X257930114Y-71158695D01*
X257930114Y-71158695D02*
X257930114Y-71253933D01*
X257930114Y-71253933D02*
X257977733Y-71396790D01*
X257977733Y-71396790D02*
X258549161Y-71968219D01*
X258549161Y-71968219D02*
X257930114Y-71968219D01*
X257311066Y-70968219D02*
X257215828Y-70968219D01*
X257215828Y-70968219D02*
X257120590Y-71015838D01*
X257120590Y-71015838D02*
X257072971Y-71063457D01*
X257072971Y-71063457D02*
X257025352Y-71158695D01*
X257025352Y-71158695D02*
X256977733Y-71349171D01*
X256977733Y-71349171D02*
X256977733Y-71587266D01*
X256977733Y-71587266D02*
X257025352Y-71777742D01*
X257025352Y-71777742D02*
X257072971Y-71872980D01*
X257072971Y-71872980D02*
X257120590Y-71920600D01*
X257120590Y-71920600D02*
X257215828Y-71968219D01*
X257215828Y-71968219D02*
X257311066Y-71968219D01*
X257311066Y-71968219D02*
X257406304Y-71920600D01*
X257406304Y-71920600D02*
X257453923Y-71872980D01*
X257453923Y-71872980D02*
X257501542Y-71777742D01*
X257501542Y-71777742D02*
X257549161Y-71587266D01*
X257549161Y-71587266D02*
X257549161Y-71349171D01*
X257549161Y-71349171D02*
X257501542Y-71158695D01*
X257501542Y-71158695D02*
X257453923Y-71063457D01*
X257453923Y-71063457D02*
X257406304Y-71015838D01*
X257406304Y-71015838D02*
X257311066Y-70968219D01*
X256596780Y-71063457D02*
X256549161Y-71015838D01*
X256549161Y-71015838D02*
X256453923Y-70968219D01*
X256453923Y-70968219D02*
X256215828Y-70968219D01*
X256215828Y-70968219D02*
X256120590Y-71015838D01*
X256120590Y-71015838D02*
X256072971Y-71063457D01*
X256072971Y-71063457D02*
X256025352Y-71158695D01*
X256025352Y-71158695D02*
X256025352Y-71253933D01*
X256025352Y-71253933D02*
X256072971Y-71396790D01*
X256072971Y-71396790D02*
X256644399Y-71968219D01*
X256644399Y-71968219D02*
X256025352Y-71968219D01*
X255692018Y-70968219D02*
X255072971Y-70968219D01*
X255072971Y-70968219D02*
X255406304Y-71349171D01*
X255406304Y-71349171D02*
X255263447Y-71349171D01*
X255263447Y-71349171D02*
X255168209Y-71396790D01*
X255168209Y-71396790D02*
X255120590Y-71444409D01*
X255120590Y-71444409D02*
X255072971Y-71539647D01*
X255072971Y-71539647D02*
X255072971Y-71777742D01*
X255072971Y-71777742D02*
X255120590Y-71872980D01*
X255120590Y-71872980D02*
X255168209Y-71920600D01*
X255168209Y-71920600D02*
X255263447Y-71968219D01*
X255263447Y-71968219D02*
X255549161Y-71968219D01*
X255549161Y-71968219D02*
X255644399Y-71920600D01*
X255644399Y-71920600D02*
X255692018Y-71872980D01*
X254644399Y-71587266D02*
X253882495Y-71587266D01*
X253215828Y-70968219D02*
X253120590Y-70968219D01*
X253120590Y-70968219D02*
X253025352Y-71015838D01*
X253025352Y-71015838D02*
X252977733Y-71063457D01*
X252977733Y-71063457D02*
X252930114Y-71158695D01*
X252930114Y-71158695D02*
X252882495Y-71349171D01*
X252882495Y-71349171D02*
X252882495Y-71587266D01*
X252882495Y-71587266D02*
X252930114Y-71777742D01*
X252930114Y-71777742D02*
X252977733Y-71872980D01*
X252977733Y-71872980D02*
X253025352Y-71920600D01*
X253025352Y-71920600D02*
X253120590Y-71968219D01*
X253120590Y-71968219D02*
X253215828Y-71968219D01*
X253215828Y-71968219D02*
X253311066Y-71920600D01*
X253311066Y-71920600D02*
X253358685Y-71872980D01*
X253358685Y-71872980D02*
X253406304Y-71777742D01*
X253406304Y-71777742D02*
X253453923Y-71587266D01*
X253453923Y-71587266D02*
X253453923Y-71349171D01*
X253453923Y-71349171D02*
X253406304Y-71158695D01*
X253406304Y-71158695D02*
X253358685Y-71063457D01*
X253358685Y-71063457D02*
X253311066Y-71015838D01*
X253311066Y-71015838D02*
X253215828Y-70968219D01*
X252501542Y-71063457D02*
X252453923Y-71015838D01*
X252453923Y-71015838D02*
X252358685Y-70968219D01*
X252358685Y-70968219D02*
X252120590Y-70968219D01*
X252120590Y-70968219D02*
X252025352Y-71015838D01*
X252025352Y-71015838D02*
X251977733Y-71063457D01*
X251977733Y-71063457D02*
X251930114Y-71158695D01*
X251930114Y-71158695D02*
X251930114Y-71253933D01*
X251930114Y-71253933D02*
X251977733Y-71396790D01*
X251977733Y-71396790D02*
X252549161Y-71968219D01*
X252549161Y-71968219D02*
X251930114Y-71968219D01*
X251501542Y-71587266D02*
X250739638Y-71587266D01*
X250072971Y-70968219D02*
X249977733Y-70968219D01*
X249977733Y-70968219D02*
X249882495Y-71015838D01*
X249882495Y-71015838D02*
X249834876Y-71063457D01*
X249834876Y-71063457D02*
X249787257Y-71158695D01*
X249787257Y-71158695D02*
X249739638Y-71349171D01*
X249739638Y-71349171D02*
X249739638Y-71587266D01*
X249739638Y-71587266D02*
X249787257Y-71777742D01*
X249787257Y-71777742D02*
X249834876Y-71872980D01*
X249834876Y-71872980D02*
X249882495Y-71920600D01*
X249882495Y-71920600D02*
X249977733Y-71968219D01*
X249977733Y-71968219D02*
X250072971Y-71968219D01*
X250072971Y-71968219D02*
X250168209Y-71920600D01*
X250168209Y-71920600D02*
X250215828Y-71872980D01*
X250215828Y-71872980D02*
X250263447Y-71777742D01*
X250263447Y-71777742D02*
X250311066Y-71587266D01*
X250311066Y-71587266D02*
X250311066Y-71349171D01*
X250311066Y-71349171D02*
X250263447Y-71158695D01*
X250263447Y-71158695D02*
X250215828Y-71063457D01*
X250215828Y-71063457D02*
X250168209Y-71015838D01*
X250168209Y-71015838D02*
X250072971Y-70968219D01*
X248787257Y-71968219D02*
X249358685Y-71968219D01*
X249072971Y-71968219D02*
X249072971Y-70968219D01*
X249072971Y-70968219D02*
X249168209Y-71111076D01*
X249168209Y-71111076D02*
X249263447Y-71206314D01*
X249263447Y-71206314D02*
X249358685Y-71253933D01*
D11*
X206250265Y-109046409D02*
X206083599Y-109546409D01*
X206083599Y-109546409D02*
X205916932Y-109046409D01*
X205583599Y-109284504D02*
X205512171Y-109308314D01*
X205512171Y-109308314D02*
X205488361Y-109332123D01*
X205488361Y-109332123D02*
X205464552Y-109379742D01*
X205464552Y-109379742D02*
X205464552Y-109451171D01*
X205464552Y-109451171D02*
X205488361Y-109498790D01*
X205488361Y-109498790D02*
X205512171Y-109522600D01*
X205512171Y-109522600D02*
X205559790Y-109546409D01*
X205559790Y-109546409D02*
X205750266Y-109546409D01*
X205750266Y-109546409D02*
X205750266Y-109046409D01*
X205750266Y-109046409D02*
X205583599Y-109046409D01*
X205583599Y-109046409D02*
X205535980Y-109070219D01*
X205535980Y-109070219D02*
X205512171Y-109094028D01*
X205512171Y-109094028D02*
X205488361Y-109141647D01*
X205488361Y-109141647D02*
X205488361Y-109189266D01*
X205488361Y-109189266D02*
X205512171Y-109236885D01*
X205512171Y-109236885D02*
X205535980Y-109260695D01*
X205535980Y-109260695D02*
X205583599Y-109284504D01*
X205583599Y-109284504D02*
X205750266Y-109284504D01*
X205250266Y-109046409D02*
X205250266Y-109451171D01*
X205250266Y-109451171D02*
X205226456Y-109498790D01*
X205226456Y-109498790D02*
X205202647Y-109522600D01*
X205202647Y-109522600D02*
X205155028Y-109546409D01*
X205155028Y-109546409D02*
X205059790Y-109546409D01*
X205059790Y-109546409D02*
X205012171Y-109522600D01*
X205012171Y-109522600D02*
X204988361Y-109498790D01*
X204988361Y-109498790D02*
X204964552Y-109451171D01*
X204964552Y-109451171D02*
X204964552Y-109046409D01*
X204750265Y-109522600D02*
X204678837Y-109546409D01*
X204678837Y-109546409D02*
X204559789Y-109546409D01*
X204559789Y-109546409D02*
X204512170Y-109522600D01*
X204512170Y-109522600D02*
X204488361Y-109498790D01*
X204488361Y-109498790D02*
X204464551Y-109451171D01*
X204464551Y-109451171D02*
X204464551Y-109403552D01*
X204464551Y-109403552D02*
X204488361Y-109355933D01*
X204488361Y-109355933D02*
X204512170Y-109332123D01*
X204512170Y-109332123D02*
X204559789Y-109308314D01*
X204559789Y-109308314D02*
X204655027Y-109284504D01*
X204655027Y-109284504D02*
X204702646Y-109260695D01*
X204702646Y-109260695D02*
X204726456Y-109236885D01*
X204726456Y-109236885D02*
X204750265Y-109189266D01*
X204750265Y-109189266D02*
X204750265Y-109141647D01*
X204750265Y-109141647D02*
X204726456Y-109094028D01*
X204726456Y-109094028D02*
X204702646Y-109070219D01*
X204702646Y-109070219D02*
X204655027Y-109046409D01*
X204655027Y-109046409D02*
X204535980Y-109046409D01*
X204535980Y-109046409D02*
X204464551Y-109070219D01*
D12*
X201271865Y-77924600D02*
X201414722Y-77876980D01*
X201414722Y-77876980D02*
X201652817Y-77876980D01*
X201652817Y-77876980D02*
X201748055Y-77924600D01*
X201748055Y-77924600D02*
X201795674Y-77972219D01*
X201795674Y-77972219D02*
X201843293Y-78067457D01*
X201843293Y-78067457D02*
X201843293Y-78162695D01*
X201843293Y-78162695D02*
X201795674Y-78257933D01*
X201795674Y-78257933D02*
X201748055Y-78305552D01*
X201748055Y-78305552D02*
X201652817Y-78353171D01*
X201652817Y-78353171D02*
X201462341Y-78400790D01*
X201462341Y-78400790D02*
X201367103Y-78448409D01*
X201367103Y-78448409D02*
X201319484Y-78496028D01*
X201319484Y-78496028D02*
X201271865Y-78591266D01*
X201271865Y-78591266D02*
X201271865Y-78686504D01*
X201271865Y-78686504D02*
X201319484Y-78781742D01*
X201319484Y-78781742D02*
X201367103Y-78829361D01*
X201367103Y-78829361D02*
X201462341Y-78876980D01*
X201462341Y-78876980D02*
X201700436Y-78876980D01*
X201700436Y-78876980D02*
X201843293Y-78829361D01*
X202271865Y-77876980D02*
X202271865Y-78876980D01*
X202271865Y-78876980D02*
X202509960Y-78876980D01*
X202509960Y-78876980D02*
X202652817Y-78829361D01*
X202652817Y-78829361D02*
X202748055Y-78734123D01*
X202748055Y-78734123D02*
X202795674Y-78638885D01*
X202795674Y-78638885D02*
X202843293Y-78448409D01*
X202843293Y-78448409D02*
X202843293Y-78305552D01*
X202843293Y-78305552D02*
X202795674Y-78115076D01*
X202795674Y-78115076D02*
X202748055Y-78019838D01*
X202748055Y-78019838D02*
X202652817Y-77924600D01*
X202652817Y-77924600D02*
X202509960Y-77876980D01*
X202509960Y-77876980D02*
X202271865Y-77876980D01*
X197461865Y-77924600D02*
X197604722Y-77876980D01*
X197604722Y-77876980D02*
X197842817Y-77876980D01*
X197842817Y-77876980D02*
X197938055Y-77924600D01*
X197938055Y-77924600D02*
X197985674Y-77972219D01*
X197985674Y-77972219D02*
X198033293Y-78067457D01*
X198033293Y-78067457D02*
X198033293Y-78162695D01*
X198033293Y-78162695D02*
X197985674Y-78257933D01*
X197985674Y-78257933D02*
X197938055Y-78305552D01*
X197938055Y-78305552D02*
X197842817Y-78353171D01*
X197842817Y-78353171D02*
X197652341Y-78400790D01*
X197652341Y-78400790D02*
X197557103Y-78448409D01*
X197557103Y-78448409D02*
X197509484Y-78496028D01*
X197509484Y-78496028D02*
X197461865Y-78591266D01*
X197461865Y-78591266D02*
X197461865Y-78686504D01*
X197461865Y-78686504D02*
X197509484Y-78781742D01*
X197509484Y-78781742D02*
X197557103Y-78829361D01*
X197557103Y-78829361D02*
X197652341Y-78876980D01*
X197652341Y-78876980D02*
X197890436Y-78876980D01*
X197890436Y-78876980D02*
X198033293Y-78829361D01*
X199033293Y-77972219D02*
X198985674Y-77924600D01*
X198985674Y-77924600D02*
X198842817Y-77876980D01*
X198842817Y-77876980D02*
X198747579Y-77876980D01*
X198747579Y-77876980D02*
X198604722Y-77924600D01*
X198604722Y-77924600D02*
X198509484Y-78019838D01*
X198509484Y-78019838D02*
X198461865Y-78115076D01*
X198461865Y-78115076D02*
X198414246Y-78305552D01*
X198414246Y-78305552D02*
X198414246Y-78448409D01*
X198414246Y-78448409D02*
X198461865Y-78638885D01*
X198461865Y-78638885D02*
X198509484Y-78734123D01*
X198509484Y-78734123D02*
X198604722Y-78829361D01*
X198604722Y-78829361D02*
X198747579Y-78876980D01*
X198747579Y-78876980D02*
X198842817Y-78876980D01*
X198842817Y-78876980D02*
X198985674Y-78829361D01*
X198985674Y-78829361D02*
X199033293Y-78781742D01*
X199461865Y-77876980D02*
X199461865Y-78876980D01*
X200033293Y-77876980D02*
X199604722Y-78448409D01*
X200033293Y-78876980D02*
X199461865Y-78305552D01*
X200287627Y-81416980D02*
X200620960Y-80416980D01*
X200620960Y-80416980D02*
X200954293Y-81416980D01*
X201287627Y-80416980D02*
X201287627Y-81416980D01*
X201287627Y-81416980D02*
X201525722Y-81416980D01*
X201525722Y-81416980D02*
X201668579Y-81369361D01*
X201668579Y-81369361D02*
X201763817Y-81274123D01*
X201763817Y-81274123D02*
X201811436Y-81178885D01*
X201811436Y-81178885D02*
X201859055Y-80988409D01*
X201859055Y-80988409D02*
X201859055Y-80845552D01*
X201859055Y-80845552D02*
X201811436Y-80655076D01*
X201811436Y-80655076D02*
X201763817Y-80559838D01*
X201763817Y-80559838D02*
X201668579Y-80464600D01*
X201668579Y-80464600D02*
X201525722Y-80416980D01*
X201525722Y-80416980D02*
X201287627Y-80416980D01*
X202287627Y-80416980D02*
X202287627Y-81416980D01*
X202287627Y-81416980D02*
X202525722Y-81416980D01*
X202525722Y-81416980D02*
X202668579Y-81369361D01*
X202668579Y-81369361D02*
X202763817Y-81274123D01*
X202763817Y-81274123D02*
X202811436Y-81178885D01*
X202811436Y-81178885D02*
X202859055Y-80988409D01*
X202859055Y-80988409D02*
X202859055Y-80845552D01*
X202859055Y-80845552D02*
X202811436Y-80655076D01*
X202811436Y-80655076D02*
X202763817Y-80559838D01*
X202763817Y-80559838D02*
X202668579Y-80464600D01*
X202668579Y-80464600D02*
X202525722Y-80416980D01*
X202525722Y-80416980D02*
X202287627Y-80416980D01*
X197858674Y-82956980D02*
X197382484Y-82956980D01*
X197382484Y-82956980D02*
X197382484Y-83956980D01*
X198906293Y-84004600D02*
X198049151Y-82718885D01*
X199811055Y-82956980D02*
X199477722Y-83433171D01*
X199239627Y-82956980D02*
X199239627Y-83956980D01*
X199239627Y-83956980D02*
X199620579Y-83956980D01*
X199620579Y-83956980D02*
X199715817Y-83909361D01*
X199715817Y-83909361D02*
X199763436Y-83861742D01*
X199763436Y-83861742D02*
X199811055Y-83766504D01*
X199811055Y-83766504D02*
X199811055Y-83623647D01*
X199811055Y-83623647D02*
X199763436Y-83528409D01*
X199763436Y-83528409D02*
X199715817Y-83480790D01*
X199715817Y-83480790D02*
X199620579Y-83433171D01*
X199620579Y-83433171D02*
X199239627Y-83433171D01*
X200700293Y-83909361D02*
X200605055Y-83956980D01*
X200605055Y-83956980D02*
X200462198Y-83956980D01*
X200462198Y-83956980D02*
X200319341Y-83909361D01*
X200319341Y-83909361D02*
X200224103Y-83814123D01*
X200224103Y-83814123D02*
X200176484Y-83718885D01*
X200176484Y-83718885D02*
X200128865Y-83528409D01*
X200128865Y-83528409D02*
X200128865Y-83385552D01*
X200128865Y-83385552D02*
X200176484Y-83195076D01*
X200176484Y-83195076D02*
X200224103Y-83099838D01*
X200224103Y-83099838D02*
X200319341Y-83004600D01*
X200319341Y-83004600D02*
X200462198Y-82956980D01*
X200462198Y-82956980D02*
X200557436Y-82956980D01*
X200557436Y-82956980D02*
X200700293Y-83004600D01*
X200700293Y-83004600D02*
X200747912Y-83052219D01*
X200747912Y-83052219D02*
X200747912Y-83385552D01*
X200747912Y-83385552D02*
X200557436Y-83385552D01*
X201176484Y-82956980D02*
X201176484Y-83956980D01*
X201176484Y-83956980D02*
X201747912Y-82956980D01*
X201747912Y-82956980D02*
X201747912Y-83956980D01*
X202224103Y-82956980D02*
X202224103Y-83956980D01*
X202224103Y-83956980D02*
X202462198Y-83956980D01*
X202462198Y-83956980D02*
X202605055Y-83909361D01*
X202605055Y-83909361D02*
X202700293Y-83814123D01*
X202700293Y-83814123D02*
X202747912Y-83718885D01*
X202747912Y-83718885D02*
X202795531Y-83528409D01*
X202795531Y-83528409D02*
X202795531Y-83385552D01*
X202795531Y-83385552D02*
X202747912Y-83195076D01*
X202747912Y-83195076D02*
X202700293Y-83099838D01*
X202700293Y-83099838D02*
X202605055Y-83004600D01*
X202605055Y-83004600D02*
X202462198Y-82956980D01*
X202462198Y-82956980D02*
X202224103Y-82956980D01*
X197541246Y-81416980D02*
X197779341Y-80416980D01*
X197779341Y-80416980D02*
X197969817Y-81131266D01*
X197969817Y-81131266D02*
X198160293Y-80416980D01*
X198160293Y-80416980D02*
X198398389Y-81416980D01*
X198731722Y-80464600D02*
X198874579Y-80416980D01*
X198874579Y-80416980D02*
X199112674Y-80416980D01*
X199112674Y-80416980D02*
X199207912Y-80464600D01*
X199207912Y-80464600D02*
X199255531Y-80512219D01*
X199255531Y-80512219D02*
X199303150Y-80607457D01*
X199303150Y-80607457D02*
X199303150Y-80702695D01*
X199303150Y-80702695D02*
X199255531Y-80797933D01*
X199255531Y-80797933D02*
X199207912Y-80845552D01*
X199207912Y-80845552D02*
X199112674Y-80893171D01*
X199112674Y-80893171D02*
X198922198Y-80940790D01*
X198922198Y-80940790D02*
X198826960Y-80988409D01*
X198826960Y-80988409D02*
X198779341Y-81036028D01*
X198779341Y-81036028D02*
X198731722Y-81131266D01*
X198731722Y-81131266D02*
X198731722Y-81226504D01*
X198731722Y-81226504D02*
X198779341Y-81321742D01*
X198779341Y-81321742D02*
X198826960Y-81369361D01*
X198826960Y-81369361D02*
X198922198Y-81416980D01*
X198922198Y-81416980D02*
X199160293Y-81416980D01*
X199160293Y-81416980D02*
X199303150Y-81369361D01*
D13*
%TO.C,J4*%
X203366000Y-141738500D02*
X203666000Y-142338500D01*
X203966000Y-141738500D02*
X203366000Y-141738500D01*
X203666000Y-142338500D02*
X203966000Y-141738500D01*
X201556000Y-142538500D02*
X201556000Y-143738500D01*
X208576000Y-142538500D02*
X201556000Y-142538500D01*
X199856000Y-143738500D02*
X199856000Y-153378500D01*
X201556000Y-143738500D02*
X199856000Y-143738500D01*
X199856000Y-153378500D02*
X201556000Y-153378500D01*
X201556000Y-153378500D02*
X201556000Y-154578500D01*
X201556000Y-154578500D02*
X208576000Y-154578500D01*
X208576000Y-154578500D02*
X208576000Y-142538500D01*
%TO.C,J6*%
X206750000Y-108050000D02*
X206750000Y-109950000D01*
X206750000Y-109950000D02*
X208650000Y-109950000D01*
X208650000Y-108050000D02*
X206750000Y-108050000D01*
X208650000Y-109950000D02*
X208650000Y-108050000D01*
D12*
%TO.C,U4*%
X206984600Y-80924400D02*
G75*
G03*
X206984600Y-80924400I-6985000J0D01*
G01*
D13*
%TO.C,J3*%
X190820000Y-82362000D02*
X190820000Y-84262000D01*
X190820000Y-84262000D02*
X192720000Y-84262000D01*
X192720000Y-82362000D02*
X190820000Y-82362000D01*
X192720000Y-84262000D02*
X192720000Y-82362000D01*
%TO.C,G\u002A\u002A\u002A*%
G36*
X260560994Y-63190573D02*
G01*
X259385641Y-63190573D01*
X259385641Y-62868897D01*
X260560994Y-62868897D01*
X260560994Y-63190573D01*
G37*
G36*
X260560994Y-63796808D02*
G01*
X259286664Y-63796808D01*
X259286664Y-63462760D01*
X260560994Y-63462760D01*
X260560994Y-63796808D01*
G37*
G36*
X253236688Y-55915756D02*
G01*
X253125339Y-55915756D01*
X253125339Y-52154625D01*
X253236688Y-52154625D01*
X253236688Y-55915756D01*
G37*
G36*
X250725144Y-62831781D02*
G01*
X248844579Y-62831781D01*
X248844579Y-62312151D01*
X250725144Y-62312151D01*
X250725144Y-62831781D01*
G37*
G36*
X250725144Y-63796808D02*
G01*
X248683741Y-63796808D01*
X248683741Y-63264806D01*
X250725144Y-63264806D01*
X250725144Y-63796808D01*
G37*
G36*
X260560994Y-62621454D02*
G01*
X259387217Y-62621454D01*
X259322988Y-62507012D01*
X259305278Y-62475519D01*
X259274725Y-62421441D01*
X259247603Y-62373725D01*
X259228233Y-62339988D01*
X259197708Y-62287407D01*
X260560994Y-62287407D01*
X260560994Y-62621454D01*
G37*
G36*
X250725144Y-61916397D02*
G01*
X249783937Y-61913227D01*
X248842729Y-61910057D01*
X248731518Y-61712102D01*
X248700970Y-61657725D01*
X248663372Y-61590787D01*
X248629445Y-61530376D01*
X248602006Y-61481507D01*
X248583871Y-61449194D01*
X248547436Y-61384241D01*
X250725144Y-61384241D01*
X250725144Y-61916397D01*
G37*
G36*
X253434642Y-63796808D02*
G01*
X251282526Y-63796808D01*
X251155394Y-63546272D01*
X251136545Y-63509044D01*
X251101490Y-63439337D01*
X251071082Y-63378253D01*
X251046972Y-63329145D01*
X251030814Y-63295367D01*
X251024261Y-63280271D01*
X251024232Y-63279788D01*
X251029462Y-63276765D01*
X251045170Y-63274150D01*
X251072780Y-63271918D01*
X251113722Y-63270044D01*
X251169420Y-63268502D01*
X251241303Y-63267267D01*
X251330795Y-63266313D01*
X251439325Y-63265615D01*
X251568319Y-63265149D01*
X251719203Y-63264887D01*
X251893404Y-63264806D01*
X252766547Y-63264806D01*
X252766547Y-61384241D01*
X253434642Y-61384241D01*
X253434642Y-63796808D01*
G37*
G36*
X258343333Y-55401835D02*
G01*
X258378587Y-55409795D01*
X258418599Y-55420232D01*
X258456136Y-55431210D01*
X258483964Y-55440795D01*
X258494847Y-55447053D01*
X258493139Y-55451398D01*
X258481778Y-55475028D01*
X258460769Y-55516993D01*
X258431294Y-55574980D01*
X258394538Y-55646679D01*
X258351682Y-55729777D01*
X258303909Y-55821963D01*
X258252401Y-55920926D01*
X258214096Y-55994572D01*
X258161622Y-56095847D01*
X258118664Y-56178291D01*
X258083718Y-56243647D01*
X258055279Y-56293654D01*
X258031841Y-56330055D01*
X258011899Y-56354590D01*
X257993948Y-56369001D01*
X257976483Y-56375029D01*
X257957999Y-56374416D01*
X257936989Y-56368902D01*
X257911950Y-56360229D01*
X257881376Y-56350138D01*
X257815422Y-56330222D01*
X258063665Y-55866267D01*
X258094084Y-55809433D01*
X258144816Y-55714729D01*
X258191183Y-55628277D01*
X258231970Y-55552338D01*
X258265959Y-55489174D01*
X258291934Y-55441047D01*
X258308678Y-55410219D01*
X258314976Y-55398953D01*
X258320073Y-55398286D01*
X258343333Y-55401835D01*
G37*
G36*
X254857935Y-53996341D02*
G01*
X254865375Y-53996714D01*
X254909219Y-53999545D01*
X254941349Y-54002675D01*
X254955257Y-54005492D01*
X254955253Y-54007545D01*
X254952602Y-54028806D01*
X254946443Y-54071172D01*
X254937165Y-54132252D01*
X254925154Y-54209657D01*
X254910799Y-54300999D01*
X254894486Y-54403887D01*
X254876602Y-54515933D01*
X254857537Y-54634746D01*
X254837675Y-54757938D01*
X254817406Y-54883119D01*
X254797116Y-55007900D01*
X254777193Y-55129892D01*
X254758024Y-55246705D01*
X254739996Y-55355950D01*
X254723497Y-55455237D01*
X254708915Y-55542178D01*
X254696637Y-55614382D01*
X254687049Y-55669461D01*
X254680540Y-55705024D01*
X254677497Y-55718684D01*
X254673904Y-55719822D01*
X254651876Y-55720039D01*
X254616395Y-55717919D01*
X254574946Y-55714184D01*
X254535012Y-55709559D01*
X254504076Y-55704766D01*
X254489622Y-55700528D01*
X254490142Y-55694122D01*
X254494106Y-55665568D01*
X254501574Y-55615956D01*
X254512234Y-55547251D01*
X254525772Y-55461422D01*
X254541876Y-55360436D01*
X254560233Y-55246261D01*
X254580530Y-55120864D01*
X254602456Y-54986212D01*
X254625696Y-54844273D01*
X254765640Y-53991888D01*
X254857935Y-53996341D01*
G37*
G36*
X251459420Y-54840973D02*
G01*
X251472159Y-54920173D01*
X251494367Y-55058098D01*
X251515357Y-55188274D01*
X251534792Y-55308615D01*
X251552334Y-55417037D01*
X251567644Y-55511453D01*
X251580385Y-55589779D01*
X251590219Y-55649930D01*
X251596808Y-55689819D01*
X251599814Y-55707362D01*
X251600325Y-55710127D01*
X251599549Y-55735076D01*
X251583229Y-55746136D01*
X251569011Y-55748519D01*
X251533506Y-55751659D01*
X251490465Y-55753483D01*
X251461547Y-55753688D01*
X251434075Y-55751083D01*
X251420460Y-55742966D01*
X251414183Y-55727080D01*
X251410418Y-55707891D01*
X251403117Y-55666287D01*
X251392952Y-55605880D01*
X251380299Y-55529069D01*
X251365536Y-55438259D01*
X251349041Y-55335850D01*
X251331190Y-55224245D01*
X251312362Y-55105845D01*
X251292933Y-54983052D01*
X251273280Y-54858269D01*
X251253782Y-54733897D01*
X251234815Y-54612338D01*
X251216756Y-54495995D01*
X251199984Y-54387268D01*
X251184875Y-54288561D01*
X251171807Y-54202275D01*
X251161156Y-54130811D01*
X251153301Y-54076572D01*
X251148619Y-54041960D01*
X251147487Y-54029377D01*
X251147653Y-54029232D01*
X251163001Y-54025149D01*
X251195871Y-54020206D01*
X251239420Y-54015440D01*
X251325407Y-54007448D01*
X251459420Y-54840973D01*
G37*
G36*
X247273583Y-54686263D02*
G01*
X247273645Y-54686329D01*
X247281764Y-54699453D01*
X247300430Y-54731977D01*
X247328516Y-54781849D01*
X247364896Y-54847014D01*
X247408446Y-54925421D01*
X247458038Y-55015016D01*
X247512549Y-55113747D01*
X247570851Y-55219561D01*
X247631819Y-55330405D01*
X247694327Y-55444226D01*
X247757249Y-55558971D01*
X247819461Y-55672587D01*
X247879835Y-55783022D01*
X247937247Y-55888223D01*
X247990570Y-55986137D01*
X248038680Y-56074710D01*
X248080449Y-56151891D01*
X248114752Y-56215626D01*
X248140464Y-56263863D01*
X248156459Y-56294548D01*
X248161611Y-56305629D01*
X248161212Y-56305890D01*
X248145982Y-56311398D01*
X248113935Y-56321441D01*
X248071321Y-56334052D01*
X248066853Y-56335335D01*
X248023564Y-56346926D01*
X247990094Y-56354450D01*
X247973368Y-56356333D01*
X247966305Y-56346092D01*
X247948542Y-56316050D01*
X247921267Y-56268278D01*
X247885605Y-56204841D01*
X247842684Y-56127806D01*
X247793630Y-56039240D01*
X247739570Y-55941210D01*
X247681630Y-55835783D01*
X247620939Y-55725025D01*
X247558621Y-55611003D01*
X247495805Y-55495785D01*
X247433616Y-55381436D01*
X247373182Y-55270024D01*
X247315629Y-55163615D01*
X247262084Y-55064276D01*
X247213674Y-54974074D01*
X247171525Y-54895076D01*
X247136765Y-54829348D01*
X247110519Y-54778958D01*
X247093916Y-54745972D01*
X247088080Y-54732456D01*
X247090757Y-54727991D01*
X247110926Y-54717113D01*
X247144846Y-54705407D01*
X247185293Y-54694671D01*
X247225046Y-54686703D01*
X247256883Y-54683301D01*
X247273583Y-54686263D01*
G37*
G36*
X261269143Y-54316178D02*
G01*
X261314264Y-54330762D01*
X261317112Y-54331734D01*
X261360779Y-54347209D01*
X261395546Y-54360525D01*
X261414111Y-54368892D01*
X261414364Y-54369235D01*
X261408620Y-54382424D01*
X261388680Y-54414084D01*
X261354449Y-54464345D01*
X261305833Y-54533339D01*
X261242738Y-54621195D01*
X261165069Y-54728043D01*
X261072733Y-54854015D01*
X260965635Y-54999241D01*
X260843681Y-55163851D01*
X260706776Y-55347976D01*
X260552312Y-55556059D01*
X260351462Y-55828610D01*
X260155791Y-56096371D01*
X259967385Y-56356460D01*
X259788329Y-56605993D01*
X259620709Y-56842089D01*
X259466610Y-57061865D01*
X258948682Y-57805881D01*
X258861411Y-57776198D01*
X258855792Y-57774273D01*
X258812855Y-57758628D01*
X258780032Y-57745094D01*
X258764039Y-57736413D01*
X258763960Y-57736252D01*
X258770609Y-57723709D01*
X258791042Y-57693136D01*
X258824127Y-57646079D01*
X258868730Y-57584084D01*
X258923719Y-57508695D01*
X258987961Y-57421460D01*
X259060323Y-57323923D01*
X259139672Y-57217632D01*
X259224874Y-57104130D01*
X259314798Y-56984964D01*
X259343345Y-56947209D01*
X259456893Y-56796518D01*
X259563049Y-56654670D01*
X259663930Y-56518725D01*
X259761653Y-56385744D01*
X259858337Y-56252787D01*
X259956098Y-56116916D01*
X260057055Y-55975190D01*
X260163324Y-55824671D01*
X260277023Y-55662420D01*
X260400269Y-55485497D01*
X260535181Y-55290963D01*
X260556193Y-55260615D01*
X260650915Y-55123895D01*
X260741637Y-54993084D01*
X260827353Y-54869627D01*
X260907056Y-54754970D01*
X260979738Y-54650556D01*
X261044393Y-54557829D01*
X261100014Y-54478236D01*
X261145593Y-54413219D01*
X261180124Y-54364223D01*
X261202599Y-54332694D01*
X261212012Y-54320076D01*
X261212277Y-54319798D01*
X261224143Y-54311323D01*
X261241101Y-54309907D01*
X261269143Y-54316178D01*
G37*
G36*
X253775518Y-62290229D02*
G01*
X254003818Y-62293593D01*
X254199717Y-62705002D01*
X254201551Y-62708853D01*
X254246108Y-62802261D01*
X254287314Y-62888346D01*
X254323959Y-62964604D01*
X254354834Y-63028528D01*
X254378728Y-63077615D01*
X254394432Y-63109358D01*
X254400735Y-63121253D01*
X254401124Y-63121103D01*
X254409614Y-63107918D01*
X254427906Y-63075484D01*
X254454743Y-63026153D01*
X254488866Y-62962277D01*
X254529017Y-62886210D01*
X254573937Y-62800304D01*
X254622368Y-62706910D01*
X254838880Y-62287724D01*
X255064672Y-62287565D01*
X255133869Y-62287710D01*
X255196563Y-62288231D01*
X255246145Y-62289065D01*
X255278737Y-62290146D01*
X255290463Y-62291407D01*
X255289677Y-62293276D01*
X255280295Y-62312452D01*
X255261258Y-62350416D01*
X255233757Y-62404820D01*
X255198983Y-62473318D01*
X255158126Y-62553562D01*
X255112379Y-62643204D01*
X255062931Y-62739897D01*
X254835398Y-63184387D01*
X254636092Y-63187786D01*
X254590713Y-63188726D01*
X254529560Y-63190586D01*
X254480770Y-63192800D01*
X254448469Y-63195168D01*
X254436786Y-63197489D01*
X254440676Y-63207172D01*
X254453906Y-63236580D01*
X254475154Y-63282634D01*
X254503006Y-63342296D01*
X254536052Y-63412526D01*
X254572879Y-63490288D01*
X254604919Y-63558027D01*
X254638599Y-63629925D01*
X254667261Y-63691871D01*
X254689489Y-63740773D01*
X254703866Y-63773540D01*
X254708973Y-63787081D01*
X254699616Y-63789908D01*
X254669175Y-63792367D01*
X254621437Y-63793951D01*
X254560336Y-63794537D01*
X254489804Y-63794000D01*
X254270635Y-63790622D01*
X254008202Y-63246247D01*
X253964899Y-63156402D01*
X253908213Y-63038733D01*
X253852560Y-62923150D01*
X253799562Y-62813021D01*
X253750836Y-62711712D01*
X253708003Y-62622589D01*
X253672682Y-62549019D01*
X253646493Y-62494369D01*
X253547217Y-62286865D01*
X253775518Y-62290229D01*
G37*
G36*
X258790146Y-63200585D02*
G01*
X258847365Y-63317246D01*
X258900131Y-63424950D01*
X258947519Y-63521806D01*
X258988605Y-63605920D01*
X259022464Y-63675402D01*
X259048172Y-63728359D01*
X259064803Y-63762899D01*
X259071433Y-63777129D01*
X259072364Y-63782037D01*
X259068180Y-63787667D01*
X259054646Y-63791673D01*
X259028683Y-63794321D01*
X258987212Y-63795881D01*
X258927156Y-63796621D01*
X258845436Y-63796808D01*
X258611888Y-63796808D01*
X258488414Y-63548331D01*
X258470653Y-63512703D01*
X258436106Y-63444078D01*
X258405789Y-63384745D01*
X258381376Y-63337931D01*
X258364540Y-63306864D01*
X258356955Y-63294772D01*
X258356762Y-63294690D01*
X258345716Y-63302708D01*
X258322834Y-63326488D01*
X258291348Y-63362486D01*
X258254491Y-63407155D01*
X258160012Y-63524621D01*
X257708319Y-63524621D01*
X257641170Y-63660714D01*
X257574020Y-63796808D01*
X257122752Y-63796808D01*
X257250657Y-63533900D01*
X257258689Y-63517404D01*
X257295445Y-63442125D01*
X257340608Y-63349894D01*
X257392144Y-63244846D01*
X257418811Y-63190573D01*
X257876103Y-63190573D01*
X258092684Y-63190573D01*
X258153542Y-63190317D01*
X258215733Y-63189446D01*
X258265056Y-63188067D01*
X258297553Y-63186296D01*
X258309265Y-63184249D01*
X258306836Y-63177293D01*
X258295251Y-63151801D01*
X258275977Y-63111816D01*
X258251083Y-63061413D01*
X258222640Y-63004670D01*
X258192719Y-62945661D01*
X258163391Y-62888465D01*
X258136725Y-62837155D01*
X258114793Y-62795809D01*
X258099664Y-62768503D01*
X258093411Y-62759313D01*
X258093251Y-62759526D01*
X258085826Y-62773249D01*
X258069297Y-62805346D01*
X258045428Y-62852343D01*
X258015983Y-62910770D01*
X257982726Y-62977153D01*
X257876103Y-63190573D01*
X257418811Y-63190573D01*
X257448024Y-63131117D01*
X257506214Y-63012842D01*
X257564684Y-62894158D01*
X257621401Y-62779199D01*
X257864241Y-62287407D01*
X258341424Y-62287407D01*
X258702653Y-63022428D01*
X258729398Y-63076860D01*
X258782125Y-63184249D01*
X258790146Y-63200585D01*
G37*
G36*
X249132665Y-53409086D02*
G01*
X249173259Y-53523252D01*
X249269773Y-53794753D01*
X249363950Y-54059776D01*
X249455459Y-54317386D01*
X249543969Y-54566646D01*
X249629148Y-54806624D01*
X249710665Y-55036382D01*
X249788190Y-55254986D01*
X249861392Y-55461500D01*
X249929938Y-55654990D01*
X249993498Y-55834521D01*
X250051741Y-55999156D01*
X250104336Y-56147961D01*
X250150951Y-56280001D01*
X250191255Y-56394340D01*
X250224918Y-56490044D01*
X250251608Y-56566177D01*
X250270994Y-56621804D01*
X250282744Y-56655989D01*
X250286529Y-56667799D01*
X250286369Y-56667924D01*
X250272095Y-56672176D01*
X250240406Y-56679462D01*
X250197807Y-56688280D01*
X250196152Y-56688606D01*
X250152495Y-56696593D01*
X250118640Y-56701653D01*
X250101794Y-56702704D01*
X250098343Y-56694991D01*
X250086915Y-56665266D01*
X250067948Y-56614287D01*
X250041849Y-56543197D01*
X250009026Y-56453136D01*
X249969885Y-56345246D01*
X249924835Y-56220669D01*
X249874282Y-56080547D01*
X249818634Y-55926020D01*
X249758297Y-55758231D01*
X249693679Y-55578320D01*
X249625188Y-55387430D01*
X249553230Y-55186702D01*
X249478213Y-54977278D01*
X249400544Y-54760299D01*
X249320630Y-54536907D01*
X249238879Y-54308243D01*
X249155697Y-54075449D01*
X249071493Y-53839666D01*
X248986673Y-53602036D01*
X248901644Y-53363700D01*
X248816813Y-53125801D01*
X248732589Y-52889479D01*
X248649378Y-52655877D01*
X248567588Y-52426135D01*
X248487625Y-52201395D01*
X248409897Y-51982799D01*
X248334811Y-51771489D01*
X248262775Y-51568605D01*
X248194195Y-51375290D01*
X248129479Y-51192685D01*
X248069034Y-51021932D01*
X248013268Y-50864171D01*
X247962587Y-50720546D01*
X247917399Y-50592196D01*
X247878111Y-50480265D01*
X247845131Y-50385893D01*
X247818865Y-50310221D01*
X247799721Y-50254393D01*
X247788106Y-50219548D01*
X247784428Y-50206828D01*
X247785355Y-50205466D01*
X247802752Y-50196616D01*
X247836965Y-50185585D01*
X247881789Y-50174440D01*
X247975164Y-50154010D01*
X249132665Y-53409086D01*
G37*
G36*
X245007471Y-54413339D02*
G01*
X245013322Y-54420720D01*
X245033426Y-54447044D01*
X245066542Y-54490842D01*
X245111711Y-54550828D01*
X245167972Y-54625717D01*
X245234366Y-54714223D01*
X245309933Y-54815059D01*
X245393713Y-54926941D01*
X245484747Y-55048582D01*
X245582074Y-55178697D01*
X245684735Y-55315999D01*
X245791770Y-55459204D01*
X245902219Y-55607025D01*
X246015122Y-55758177D01*
X246129519Y-55911373D01*
X246244451Y-56065328D01*
X246358958Y-56218757D01*
X246472080Y-56370373D01*
X246582857Y-56518891D01*
X246690329Y-56663024D01*
X246793536Y-56801488D01*
X246891519Y-56932996D01*
X246983318Y-57056263D01*
X247067973Y-57170002D01*
X247144524Y-57272929D01*
X247212011Y-57363757D01*
X247269475Y-57441201D01*
X247315956Y-57503974D01*
X247350493Y-57550791D01*
X247372127Y-57580366D01*
X247379899Y-57591414D01*
X247380128Y-57592104D01*
X247373489Y-57604677D01*
X247345945Y-57619928D01*
X247295792Y-57638817D01*
X247286010Y-57642074D01*
X247243681Y-57654696D01*
X247212164Y-57661748D01*
X247197676Y-57661774D01*
X247190168Y-57652353D01*
X247168649Y-57624179D01*
X247134262Y-57578684D01*
X247087961Y-57517148D01*
X247030701Y-57440853D01*
X246963436Y-57351079D01*
X246887121Y-57249107D01*
X246802710Y-57136218D01*
X246711157Y-57013693D01*
X246613416Y-56882812D01*
X246510442Y-56744858D01*
X246403190Y-56601110D01*
X246292613Y-56452850D01*
X246179665Y-56301358D01*
X246065302Y-56147915D01*
X245950478Y-55993802D01*
X245836146Y-55840301D01*
X245723261Y-55688691D01*
X245612778Y-55540254D01*
X245505651Y-55396271D01*
X245402834Y-55258023D01*
X245305281Y-55126790D01*
X245213947Y-55003854D01*
X245129787Y-54890494D01*
X245053753Y-54787993D01*
X244986802Y-54697631D01*
X244929887Y-54620690D01*
X244883962Y-54558448D01*
X244849982Y-54512189D01*
X244828902Y-54483192D01*
X244821674Y-54472739D01*
X244825539Y-54467636D01*
X244847249Y-54455736D01*
X244881887Y-54441944D01*
X244922341Y-54428534D01*
X244961498Y-54417781D01*
X244992246Y-54411958D01*
X245007471Y-54413339D01*
G37*
G36*
X247759907Y-61371871D02*
G01*
X247878803Y-61372060D01*
X247989528Y-61372528D01*
X248089714Y-61373245D01*
X248176994Y-61374180D01*
X248248999Y-61375305D01*
X248303362Y-61376588D01*
X248337716Y-61378000D01*
X248349694Y-61379512D01*
X248347644Y-61384815D01*
X248336032Y-61409314D01*
X248315547Y-61450691D01*
X248287773Y-61505789D01*
X248254294Y-61571454D01*
X248216693Y-61644528D01*
X248083693Y-61901901D01*
X247582621Y-61907106D01*
X247546574Y-61907484D01*
X247419663Y-61908966D01*
X247314167Y-61910666D01*
X247227432Y-61912882D01*
X247156805Y-61915913D01*
X247099633Y-61920058D01*
X247053261Y-61925617D01*
X247015037Y-61932887D01*
X246982307Y-61942168D01*
X246952417Y-61953760D01*
X246922715Y-61967960D01*
X246890546Y-61985067D01*
X246812377Y-62040476D01*
X246744204Y-62115723D01*
X246692197Y-62205007D01*
X246674085Y-62247371D01*
X246653100Y-62306381D01*
X246638692Y-62365243D01*
X246629805Y-62430154D01*
X246625382Y-62507306D01*
X246624369Y-62602896D01*
X246625222Y-62659717D01*
X246632337Y-62772579D01*
X246647419Y-62868867D01*
X246671420Y-62953619D01*
X246705289Y-63031871D01*
X246710052Y-63040858D01*
X246760991Y-63113149D01*
X246827195Y-63177027D01*
X246900403Y-63224343D01*
X246970200Y-63258620D01*
X247313527Y-63262429D01*
X247656854Y-63266239D01*
X247656854Y-62336895D01*
X248324949Y-62336895D01*
X248324949Y-63798065D01*
X247585714Y-63793946D01*
X246846479Y-63789828D01*
X246727320Y-63757287D01*
X246683688Y-63744826D01*
X246527847Y-63689594D01*
X246392465Y-63622532D01*
X246275890Y-63542359D01*
X246176470Y-63447792D01*
X246092553Y-63337551D01*
X246022487Y-63210352D01*
X245984160Y-63114319D01*
X245945989Y-62974683D01*
X245921026Y-62822745D01*
X245909375Y-62663439D01*
X245911139Y-62501703D01*
X245926424Y-62342472D01*
X245955333Y-62190682D01*
X245997972Y-62051270D01*
X246032327Y-61972177D01*
X246107336Y-61847878D01*
X246202686Y-61736114D01*
X246317264Y-61637782D01*
X246449956Y-61553780D01*
X246599650Y-61485007D01*
X246765234Y-61432358D01*
X246819226Y-61419292D01*
X246872784Y-61408162D01*
X246928218Y-61398871D01*
X246988069Y-61391260D01*
X247054877Y-61385173D01*
X247131183Y-61380454D01*
X247219527Y-61376944D01*
X247322449Y-61374488D01*
X247442490Y-61372928D01*
X247582191Y-61372107D01*
X247744093Y-61371869D01*
X247759907Y-61371871D01*
G37*
G36*
X258125165Y-50104741D02*
G01*
X258163547Y-50109488D01*
X258205793Y-50116991D01*
X258244784Y-50125931D01*
X258273400Y-50134986D01*
X258284521Y-50142836D01*
X258282839Y-50148633D01*
X258274060Y-50176165D01*
X258258115Y-50225262D01*
X258235387Y-50294769D01*
X258206257Y-50383531D01*
X258171109Y-50490394D01*
X258130326Y-50614202D01*
X258084290Y-50753800D01*
X258033385Y-50908035D01*
X257977992Y-51075750D01*
X257918496Y-51255792D01*
X257855278Y-51447005D01*
X257788722Y-51648234D01*
X257719210Y-51858325D01*
X257647125Y-52076123D01*
X257572850Y-52300473D01*
X257496768Y-52530221D01*
X257419262Y-52764210D01*
X257340713Y-53001288D01*
X257261506Y-53240298D01*
X257182023Y-53480086D01*
X257102647Y-53719497D01*
X257023760Y-53957376D01*
X256945746Y-54192569D01*
X256868987Y-54423920D01*
X256793866Y-54650275D01*
X256720765Y-54870479D01*
X256650069Y-55083377D01*
X256582159Y-55287815D01*
X256517418Y-55482637D01*
X256456229Y-55666688D01*
X256398975Y-55838815D01*
X256346038Y-55997861D01*
X256297802Y-56142673D01*
X256254650Y-56272095D01*
X256216963Y-56384972D01*
X256185126Y-56480150D01*
X256159520Y-56556474D01*
X256140528Y-56612789D01*
X256128534Y-56647940D01*
X256123921Y-56660773D01*
X256117661Y-56665378D01*
X256096704Y-56665478D01*
X256086852Y-56663120D01*
X256054550Y-56657168D01*
X256014233Y-56651063D01*
X255992702Y-56647783D01*
X255958426Y-56640970D01*
X255939159Y-56634893D01*
X255939114Y-56633265D01*
X255944195Y-56612869D01*
X255956989Y-56569435D01*
X255977392Y-56503284D01*
X256005300Y-56414734D01*
X256040608Y-56304106D01*
X256083212Y-56171719D01*
X256133008Y-56017893D01*
X256189892Y-55842947D01*
X256253759Y-55647201D01*
X256324506Y-55430974D01*
X256402027Y-55194587D01*
X256486219Y-54938359D01*
X256576977Y-54662610D01*
X256674198Y-54367659D01*
X256777777Y-54053825D01*
X256887609Y-53721430D01*
X257003591Y-53370791D01*
X257034746Y-53276657D01*
X257125157Y-53003552D01*
X257213474Y-52736883D01*
X257299382Y-52477599D01*
X257382565Y-52226647D01*
X257462709Y-51984974D01*
X257539497Y-51753529D01*
X257612616Y-51533258D01*
X257681750Y-51325110D01*
X257746584Y-51130032D01*
X257806802Y-50948971D01*
X257862091Y-50782876D01*
X257912133Y-50632694D01*
X257956615Y-50499372D01*
X257995221Y-50383859D01*
X258027636Y-50287101D01*
X258053546Y-50210046D01*
X258072634Y-50153643D01*
X258084586Y-50118838D01*
X258089086Y-50106579D01*
X258097768Y-50104072D01*
X258125165Y-50104741D01*
G37*
G36*
X256151915Y-62287496D02*
G01*
X256273886Y-62287944D01*
X256375783Y-62289001D01*
X256460017Y-62290918D01*
X256529000Y-62293942D01*
X256585146Y-62298325D01*
X256630865Y-62304317D01*
X256668570Y-62312166D01*
X256700673Y-62322123D01*
X256729586Y-62334437D01*
X256757722Y-62349358D01*
X256787492Y-62367136D01*
X256859267Y-62425061D01*
X256916357Y-62500364D01*
X256954379Y-62587735D01*
X256955201Y-62590586D01*
X256965350Y-62643856D01*
X256971177Y-62710148D01*
X256972489Y-62780153D01*
X256969091Y-62844563D01*
X256960787Y-62894069D01*
X256958525Y-62901822D01*
X256921424Y-62981894D01*
X256862967Y-63052572D01*
X256785307Y-63111763D01*
X256690592Y-63157370D01*
X256676460Y-63162372D01*
X256651770Y-63169520D01*
X256623498Y-63175110D01*
X256588119Y-63179440D01*
X256542104Y-63182812D01*
X256481927Y-63185525D01*
X256404061Y-63187879D01*
X256304979Y-63190174D01*
X256294663Y-63190396D01*
X256196764Y-63192754D01*
X256120252Y-63195234D01*
X256062056Y-63198078D01*
X256019106Y-63201527D01*
X255988331Y-63205819D01*
X255966660Y-63211197D01*
X255951022Y-63217901D01*
X255915862Y-63246723D01*
X255892507Y-63290623D01*
X255887632Y-63340164D01*
X255901703Y-63389074D01*
X255935184Y-63431084D01*
X255972829Y-63462760D01*
X256806475Y-63462760D01*
X256889998Y-63630349D01*
X256973521Y-63797939D01*
X256388714Y-63794280D01*
X255803907Y-63790622D01*
X255729765Y-63760772D01*
X255658693Y-63722575D01*
X255586374Y-63661673D01*
X255569756Y-63644533D01*
X255528643Y-63594348D01*
X255500028Y-63542506D01*
X255481980Y-63483351D01*
X255472568Y-63411228D01*
X255469859Y-63320480D01*
X255469860Y-63316370D01*
X255470495Y-63255249D01*
X255473092Y-63211465D01*
X255478825Y-63178012D01*
X255488863Y-63147889D01*
X255504379Y-63114093D01*
X255524776Y-63077093D01*
X255573760Y-63014709D01*
X255636966Y-62964759D01*
X255717699Y-62924922D01*
X255819259Y-62892879D01*
X255835436Y-62888915D01*
X255871437Y-62881628D01*
X255910704Y-62876293D01*
X255957533Y-62872629D01*
X256016218Y-62870355D01*
X256091051Y-62869189D01*
X256186329Y-62868851D01*
X256220872Y-62868829D01*
X256303105Y-62868507D01*
X256365346Y-62867588D01*
X256411104Y-62865800D01*
X256443890Y-62862869D01*
X256467213Y-62858522D01*
X256484582Y-62852487D01*
X256499508Y-62844491D01*
X256503739Y-62841764D01*
X256531632Y-62816138D01*
X256547265Y-62788781D01*
X256548639Y-62782577D01*
X256549775Y-62733769D01*
X256537263Y-62686233D01*
X256513781Y-62650990D01*
X256510579Y-62648271D01*
X256501241Y-62642491D01*
X256487692Y-62637800D01*
X256467365Y-62634031D01*
X256437694Y-62631019D01*
X256396112Y-62628595D01*
X256340052Y-62626594D01*
X256266950Y-62624848D01*
X256174237Y-62623190D01*
X256059347Y-62621454D01*
X255630697Y-62615268D01*
X255546826Y-62451338D01*
X255462955Y-62287407D01*
X256017461Y-62287407D01*
X256151915Y-62287496D01*
G37*
G36*
X259367001Y-59782905D02*
G01*
X259450035Y-59784958D01*
X259546463Y-59786614D01*
X259657702Y-59787935D01*
X259785173Y-59788981D01*
X259930292Y-59789813D01*
X260094481Y-59790491D01*
X260279156Y-59791075D01*
X260485739Y-59791627D01*
X260715646Y-59792206D01*
X260739172Y-59792266D01*
X260962397Y-59792820D01*
X261162444Y-59793332D01*
X261340737Y-59793857D01*
X261498701Y-59794447D01*
X261637759Y-59795158D01*
X261759336Y-59796043D01*
X261864856Y-59797156D01*
X261955744Y-59798551D01*
X262033424Y-59800282D01*
X262099319Y-59802403D01*
X262154855Y-59804969D01*
X262201456Y-59808032D01*
X262240545Y-59811647D01*
X262273548Y-59815869D01*
X262301888Y-59820750D01*
X262326990Y-59826346D01*
X262350278Y-59832710D01*
X262373176Y-59839895D01*
X262397108Y-59847957D01*
X262423499Y-59856948D01*
X262484579Y-59879629D01*
X262628728Y-59951095D01*
X262760078Y-60042421D01*
X262876736Y-60151675D01*
X262976810Y-60276924D01*
X263058407Y-60416236D01*
X263119634Y-60567680D01*
X263122775Y-60577360D01*
X263128891Y-60595963D01*
X263134535Y-60613551D01*
X263139728Y-60631117D01*
X263144487Y-60649650D01*
X263148832Y-60670142D01*
X263152781Y-60693583D01*
X263156354Y-60720963D01*
X263159569Y-60753275D01*
X263162444Y-60791507D01*
X263165000Y-60836651D01*
X263167254Y-60889698D01*
X263169225Y-60951638D01*
X263170933Y-61023462D01*
X263172396Y-61106161D01*
X263173633Y-61200725D01*
X263174663Y-61308145D01*
X263175504Y-61429411D01*
X263176176Y-61565515D01*
X263176697Y-61717447D01*
X263177086Y-61886198D01*
X263177362Y-62072758D01*
X263177545Y-62278119D01*
X263177651Y-62503270D01*
X263177701Y-62749203D01*
X263177714Y-63016908D01*
X263177708Y-63307376D01*
X263177701Y-63621597D01*
X263177701Y-65727014D01*
X263177701Y-66434258D01*
X263148493Y-66457910D01*
X263147256Y-66458890D01*
X263141702Y-66462554D01*
X263134149Y-66465801D01*
X263123176Y-66468655D01*
X263107363Y-66471143D01*
X263085286Y-66473289D01*
X263055524Y-66475119D01*
X263016657Y-66476657D01*
X262967261Y-66477929D01*
X262905916Y-66478960D01*
X262831199Y-66479776D01*
X262741690Y-66480401D01*
X262635966Y-66480861D01*
X262512607Y-66481180D01*
X262370189Y-66481385D01*
X262207292Y-66481500D01*
X262022495Y-66481550D01*
X261814374Y-66481562D01*
X260509463Y-66481562D01*
X260512866Y-67343095D01*
X260516269Y-68204627D01*
X260487772Y-68227702D01*
X260484289Y-68230223D01*
X260478410Y-68233195D01*
X260469839Y-68235867D01*
X260457350Y-68238254D01*
X260439720Y-68240372D01*
X260415722Y-68242237D01*
X260384132Y-68243865D01*
X260343724Y-68245273D01*
X260293274Y-68246475D01*
X260231556Y-68247489D01*
X260157345Y-68248331D01*
X260069415Y-68249015D01*
X259966543Y-68249559D01*
X259847502Y-68249979D01*
X259711068Y-68250290D01*
X259556015Y-68250508D01*
X259381118Y-68250650D01*
X259185152Y-68250731D01*
X258966893Y-68250769D01*
X258725114Y-68250777D01*
X258681282Y-68250777D01*
X258441809Y-68250748D01*
X258225675Y-68250667D01*
X258031681Y-68250520D01*
X257858628Y-68250294D01*
X257705317Y-68249977D01*
X257570550Y-68249554D01*
X257453129Y-68249013D01*
X257351854Y-68248341D01*
X257265526Y-68247524D01*
X257192948Y-68246550D01*
X257132921Y-68245406D01*
X257084245Y-68244078D01*
X257045722Y-68242553D01*
X257016154Y-68240818D01*
X256994342Y-68238860D01*
X256979087Y-68236666D01*
X256969191Y-68234223D01*
X256963455Y-68231518D01*
X256935958Y-68212258D01*
X256935958Y-66493934D01*
X254981658Y-66493934D01*
X254978316Y-67348708D01*
X254974974Y-68203483D01*
X254945766Y-68227130D01*
X254941283Y-68230346D01*
X254935235Y-68233326D01*
X254926502Y-68236002D01*
X254913857Y-68238389D01*
X254896076Y-68240505D01*
X254871933Y-68242365D01*
X254840202Y-68243986D01*
X254799659Y-68245384D01*
X254749076Y-68246577D01*
X254687230Y-68247579D01*
X254612895Y-68248408D01*
X254524844Y-68249081D01*
X254421853Y-68249612D01*
X254302696Y-68250020D01*
X254166148Y-68250320D01*
X254010982Y-68250528D01*
X253835975Y-68250662D01*
X253639899Y-68250737D01*
X253421531Y-68250770D01*
X253179643Y-68250777D01*
X253098384Y-68250777D01*
X252864399Y-68250768D01*
X252653537Y-68250732D01*
X252464577Y-68250653D01*
X252296294Y-68250514D01*
X252147466Y-68250297D01*
X252016869Y-68249985D01*
X251903282Y-68249561D01*
X251805480Y-68249007D01*
X251722241Y-68248307D01*
X251652342Y-68247444D01*
X251594559Y-68246400D01*
X251547671Y-68245158D01*
X251510453Y-68243701D01*
X251481683Y-68242011D01*
X251460139Y-68240072D01*
X251444596Y-68237866D01*
X251433832Y-68235377D01*
X251426624Y-68232586D01*
X251421749Y-68229477D01*
X251417984Y-68226033D01*
X251417192Y-68225234D01*
X251412503Y-68219781D01*
X251408469Y-68212509D01*
X251405042Y-68201653D01*
X251402172Y-68185452D01*
X251399809Y-68162140D01*
X251397904Y-68129956D01*
X251396408Y-68087134D01*
X251395271Y-68031912D01*
X251394445Y-67962527D01*
X251393880Y-67877214D01*
X251393526Y-67774212D01*
X251393334Y-67651755D01*
X251393255Y-67508080D01*
X251393240Y-67341425D01*
X251393240Y-66481562D01*
X250423350Y-66481562D01*
X250293589Y-66481579D01*
X250131330Y-66481680D01*
X249991088Y-66481897D01*
X249871271Y-66482263D01*
X249770285Y-66482810D01*
X249686536Y-66483570D01*
X249618433Y-66484574D01*
X249564382Y-66485855D01*
X249522789Y-66487444D01*
X249492063Y-66489373D01*
X249470609Y-66491675D01*
X249456834Y-66494381D01*
X249449146Y-66497522D01*
X249445952Y-66501132D01*
X249445245Y-66506687D01*
X249444010Y-66534836D01*
X249442853Y-66584515D01*
X249441791Y-66653650D01*
X249440843Y-66740171D01*
X249440027Y-66842003D01*
X249439361Y-66957075D01*
X249438862Y-67083312D01*
X249438550Y-67218643D01*
X249438442Y-67360995D01*
X249438426Y-67523628D01*
X249438346Y-67665572D01*
X249438149Y-67786319D01*
X249437784Y-67887654D01*
X249437201Y-67971361D01*
X249436349Y-68039226D01*
X249435175Y-68093034D01*
X249433631Y-68134570D01*
X249431663Y-68165619D01*
X249429222Y-68187966D01*
X249426256Y-68203395D01*
X249422714Y-68213693D01*
X249418545Y-68220644D01*
X249413698Y-68226033D01*
X249412418Y-68227289D01*
X249408405Y-68230609D01*
X249402852Y-68233600D01*
X249394537Y-68236279D01*
X249382239Y-68238665D01*
X249364737Y-68240773D01*
X249340809Y-68242621D01*
X249309235Y-68244227D01*
X249268792Y-68245606D01*
X249218260Y-68246777D01*
X249156417Y-68247757D01*
X249082043Y-68248561D01*
X248993915Y-68249209D01*
X248890813Y-68249716D01*
X248771516Y-68250100D01*
X248634801Y-68250379D01*
X248479449Y-68250568D01*
X248304238Y-68250685D01*
X248107945Y-68250748D01*
X247889352Y-68250773D01*
X247647235Y-68250777D01*
X247593040Y-68250777D01*
X247353991Y-68250746D01*
X247138234Y-68250663D01*
X246944574Y-68250514D01*
X246771815Y-68250286D01*
X246618761Y-68249966D01*
X246484216Y-68249541D01*
X246366984Y-68248998D01*
X246265868Y-68248325D01*
X246179673Y-68247507D01*
X246107203Y-68246532D01*
X246047262Y-68245387D01*
X245998654Y-68244059D01*
X245960182Y-68242535D01*
X245930652Y-68240802D01*
X245908866Y-68238847D01*
X245893630Y-68236656D01*
X245883746Y-68234217D01*
X245878019Y-68231518D01*
X245850522Y-68212258D01*
X245850522Y-66481562D01*
X244553116Y-66481562D01*
X244401636Y-66481560D01*
X244211232Y-66481537D01*
X244043114Y-66481467D01*
X243895850Y-66481321D01*
X243768011Y-66481071D01*
X243658167Y-66480689D01*
X243564886Y-66480149D01*
X243486739Y-66479422D01*
X243422295Y-66478480D01*
X243370124Y-66477296D01*
X243328796Y-66475842D01*
X243296879Y-66474091D01*
X243272944Y-66472014D01*
X243255560Y-66469584D01*
X243243297Y-66466773D01*
X243234725Y-66463553D01*
X243228412Y-66459897D01*
X243222930Y-66455777D01*
X243190150Y-66429993D01*
X243190958Y-65726861D01*
X243944911Y-65726861D01*
X245850522Y-65726861D01*
X245850522Y-65221521D01*
X245850544Y-65107454D01*
X245850689Y-65002778D01*
X245851073Y-64918388D01*
X245851810Y-64851943D01*
X245853017Y-64801102D01*
X245854808Y-64763522D01*
X245857299Y-64736863D01*
X245860604Y-64718784D01*
X245864840Y-64706944D01*
X245870121Y-64699000D01*
X245876563Y-64692612D01*
X245880038Y-64689814D01*
X245885512Y-64686786D01*
X245893616Y-64684060D01*
X245905576Y-64681618D01*
X245922623Y-64679441D01*
X245945985Y-64677509D01*
X245976890Y-64675803D01*
X246016567Y-64674306D01*
X246066244Y-64672996D01*
X246127151Y-64671857D01*
X246200516Y-64670867D01*
X246287567Y-64670010D01*
X246389534Y-64669265D01*
X246507644Y-64668614D01*
X246643126Y-64668037D01*
X246797210Y-64667516D01*
X246971123Y-64667032D01*
X247166095Y-64666566D01*
X247383354Y-64666098D01*
X247624128Y-64665610D01*
X247764418Y-64665352D01*
X247964907Y-64665061D01*
X248157856Y-64664870D01*
X248341832Y-64664779D01*
X248515400Y-64664783D01*
X248677127Y-64664881D01*
X248825579Y-64665070D01*
X248959323Y-64665347D01*
X249076925Y-64665709D01*
X249176951Y-64666156D01*
X249257967Y-64666682D01*
X249318541Y-64667287D01*
X249357237Y-64667968D01*
X249372623Y-64668722D01*
X249383188Y-64671276D01*
X249397215Y-64675605D01*
X249408643Y-64682358D01*
X249417737Y-64693767D01*
X249424764Y-64712063D01*
X249429990Y-64739479D01*
X249433682Y-64778247D01*
X249436106Y-64830599D01*
X249437527Y-64898767D01*
X249438213Y-64984983D01*
X249438429Y-65091479D01*
X249438442Y-65220487D01*
X249438442Y-65726861D01*
X251377774Y-65726861D01*
X251385507Y-65688198D01*
X251385733Y-65686864D01*
X251387456Y-65663110D01*
X251389036Y-65617963D01*
X251390430Y-65554399D01*
X251391592Y-65475391D01*
X251392477Y-65383915D01*
X251393042Y-65282946D01*
X251393240Y-65175456D01*
X251393240Y-64701377D01*
X251420737Y-64682117D01*
X251421531Y-64681601D01*
X251427937Y-64678946D01*
X251438722Y-64676551D01*
X251455084Y-64674402D01*
X251478220Y-64672487D01*
X251509329Y-64670792D01*
X251549609Y-64669304D01*
X251600257Y-64668011D01*
X251662471Y-64666898D01*
X251737450Y-64665954D01*
X251826391Y-64665164D01*
X251930493Y-64664517D01*
X252050954Y-64663998D01*
X252188970Y-64663595D01*
X252345741Y-64663295D01*
X252522465Y-64663084D01*
X252720339Y-64662949D01*
X252940561Y-64662878D01*
X253184329Y-64662857D01*
X254920424Y-64662857D01*
X254981160Y-64723593D01*
X254981160Y-65726861D01*
X256920348Y-65726861D01*
X256928017Y-65680466D01*
X256928114Y-65679842D01*
X256929851Y-65655876D01*
X256931454Y-65610400D01*
X256932876Y-65546481D01*
X256934071Y-65467186D01*
X256934991Y-65375583D01*
X256935590Y-65274740D01*
X256935821Y-65167724D01*
X256935958Y-64701377D01*
X256963455Y-64682117D01*
X256964170Y-64681649D01*
X256970512Y-64678987D01*
X256981211Y-64676586D01*
X256997464Y-64674433D01*
X257020472Y-64672515D01*
X257051432Y-64670818D01*
X257091546Y-64669330D01*
X257142012Y-64668038D01*
X257204030Y-64666929D01*
X257278798Y-64665989D01*
X257367516Y-64665206D01*
X257471384Y-64664567D01*
X257591601Y-64664059D01*
X257729366Y-64663669D01*
X257885879Y-64663383D01*
X258062338Y-64663189D01*
X258259944Y-64663073D01*
X258479895Y-64663023D01*
X258723391Y-64663026D01*
X258872880Y-64663068D01*
X259073753Y-64663213D01*
X259267040Y-64663454D01*
X259451310Y-64663783D01*
X259625133Y-64664196D01*
X259787080Y-64664685D01*
X259935721Y-64665245D01*
X260069626Y-64665869D01*
X260187365Y-64666551D01*
X260287509Y-64667285D01*
X260368628Y-64668066D01*
X260429292Y-64668886D01*
X260468071Y-64669739D01*
X260483535Y-64670620D01*
X260511239Y-64678046D01*
X260514465Y-65199360D01*
X260517692Y-65720675D01*
X261473620Y-65723845D01*
X262429549Y-65727014D01*
X262426275Y-63286533D01*
X262423001Y-60846053D01*
X262396075Y-60780368D01*
X262384898Y-60755222D01*
X262361269Y-60709955D01*
X262338795Y-60674888D01*
X262314951Y-60649363D01*
X262259044Y-60609547D01*
X262189618Y-60577149D01*
X262113698Y-60555883D01*
X262113533Y-60555854D01*
X262101223Y-60554910D01*
X262075155Y-60554011D01*
X262034974Y-60553156D01*
X261980326Y-60552344D01*
X261910857Y-60551574D01*
X261826211Y-60550847D01*
X261726035Y-60550163D01*
X261609974Y-60549519D01*
X261477675Y-60548918D01*
X261328781Y-60548356D01*
X261162940Y-60547836D01*
X260979797Y-60547355D01*
X260778997Y-60546914D01*
X260560186Y-60546512D01*
X260323010Y-60546149D01*
X260067113Y-60545825D01*
X259792143Y-60545538D01*
X259497744Y-60545289D01*
X259183563Y-60545077D01*
X258849244Y-60544902D01*
X258494433Y-60544763D01*
X258118776Y-60544660D01*
X257721919Y-60544592D01*
X257303507Y-60544560D01*
X256863186Y-60544562D01*
X256400601Y-60544599D01*
X255915398Y-60544669D01*
X255407223Y-60544773D01*
X254875721Y-60544910D01*
X254320538Y-60545080D01*
X253741320Y-60545282D01*
X253137711Y-60545515D01*
X244235958Y-60549121D01*
X244167406Y-60576879D01*
X244165231Y-60577769D01*
X244087267Y-60622962D01*
X244024183Y-60686851D01*
X243978889Y-60766510D01*
X243951398Y-60833681D01*
X243948155Y-63280271D01*
X243944911Y-65726861D01*
X243190958Y-65726861D01*
X243196698Y-60734703D01*
X243225457Y-60635726D01*
X243273610Y-60497178D01*
X243348050Y-60345961D01*
X243441069Y-60210563D01*
X243553155Y-60090173D01*
X243615006Y-60035881D01*
X243693488Y-59977821D01*
X243778645Y-59928061D01*
X243879411Y-59880870D01*
X243906648Y-59869037D01*
X243931746Y-59858132D01*
X243955421Y-59848368D01*
X243979051Y-59839677D01*
X244004011Y-59831988D01*
X244031681Y-59825233D01*
X244063436Y-59819342D01*
X244100654Y-59814246D01*
X244144712Y-59809875D01*
X244196988Y-59806160D01*
X244258858Y-59803032D01*
X244331700Y-59800420D01*
X244416890Y-59798257D01*
X244515808Y-59796472D01*
X244629828Y-59794996D01*
X244760329Y-59793760D01*
X244908687Y-59792695D01*
X245076281Y-59791730D01*
X245264486Y-59790797D01*
X245474681Y-59789826D01*
X245708242Y-59788748D01*
X247254759Y-59781480D01*
X247271325Y-59776818D01*
X248586826Y-59776818D01*
X248595669Y-59777669D01*
X248628527Y-59778621D01*
X248685163Y-59779537D01*
X248765060Y-59780415D01*
X248867699Y-59781253D01*
X248992562Y-59782050D01*
X249139131Y-59782805D01*
X249306887Y-59783517D01*
X249495313Y-59784184D01*
X249703890Y-59784805D01*
X249932100Y-59785379D01*
X250179424Y-59785904D01*
X250445344Y-59786379D01*
X250729343Y-59786804D01*
X251030901Y-59787176D01*
X251349501Y-59787494D01*
X251684624Y-59787757D01*
X252035752Y-59787964D01*
X252402366Y-59788114D01*
X252783949Y-59788204D01*
X253179983Y-59788235D01*
X253314086Y-59788232D01*
X253647451Y-59788194D01*
X253974116Y-59788117D01*
X254293223Y-59788001D01*
X254603912Y-59787848D01*
X254905323Y-59787659D01*
X255196598Y-59787436D01*
X255476878Y-59787180D01*
X255745302Y-59786893D01*
X256001012Y-59786576D01*
X256243148Y-59786230D01*
X256470852Y-59785858D01*
X256683263Y-59785460D01*
X256879523Y-59785038D01*
X257058772Y-59784593D01*
X257220151Y-59784128D01*
X257362800Y-59783643D01*
X257485861Y-59783139D01*
X257588475Y-59782619D01*
X257669781Y-59782084D01*
X257728920Y-59781535D01*
X257765034Y-59780974D01*
X257777263Y-59780401D01*
X257775905Y-59777599D01*
X257762475Y-59759084D01*
X257736971Y-59726788D01*
X257702226Y-59684254D01*
X257661073Y-59635029D01*
X257408860Y-59355195D01*
X257140321Y-59093450D01*
X256856987Y-58851169D01*
X256559517Y-58628694D01*
X256248573Y-58426368D01*
X255924814Y-58244535D01*
X255588901Y-58083538D01*
X255241493Y-57943719D01*
X254883253Y-57825421D01*
X254514839Y-57728989D01*
X254136912Y-57654764D01*
X253750132Y-57603090D01*
X253735764Y-57601656D01*
X253615082Y-57592382D01*
X253476653Y-57585808D01*
X253326520Y-57581933D01*
X253170729Y-57580758D01*
X253015326Y-57582282D01*
X252866356Y-57586506D01*
X252729864Y-57593430D01*
X252611895Y-57603054D01*
X252438885Y-57623221D01*
X252056047Y-57685206D01*
X251682292Y-57770038D01*
X251318075Y-57877506D01*
X250963848Y-58007398D01*
X250620066Y-58159505D01*
X250287182Y-58333616D01*
X249965649Y-58529520D01*
X249655922Y-58747006D01*
X249358455Y-58985864D01*
X249073700Y-59245883D01*
X249072852Y-59246708D01*
X249017536Y-59301539D01*
X248957046Y-59363236D01*
X248893882Y-59429070D01*
X248830544Y-59496318D01*
X248769530Y-59562252D01*
X248713341Y-59624147D01*
X248664476Y-59679277D01*
X248625436Y-59724916D01*
X248598719Y-59758339D01*
X248586826Y-59776818D01*
X247271325Y-59776818D01*
X247353069Y-59753813D01*
X247378287Y-59746352D01*
X247509518Y-59696449D01*
X247635448Y-59630984D01*
X247746739Y-59554680D01*
X247755425Y-59547589D01*
X247803373Y-59503936D01*
X247860832Y-59445818D01*
X247923520Y-59377700D01*
X247987155Y-59304045D01*
X248243325Y-59011547D01*
X248517043Y-58728448D01*
X248798683Y-58466911D01*
X249089947Y-58225530D01*
X249392535Y-58002898D01*
X249708149Y-57797609D01*
X250038491Y-57608257D01*
X250217472Y-57515522D01*
X250583028Y-57346830D01*
X250957114Y-57201109D01*
X251338706Y-57078603D01*
X251726775Y-56979559D01*
X252120295Y-56904221D01*
X252518240Y-56852835D01*
X252919581Y-56825647D01*
X253323293Y-56822903D01*
X253587511Y-56833623D01*
X253939757Y-56863206D01*
X254282746Y-56910789D01*
X254621762Y-56977297D01*
X254962092Y-57063656D01*
X255309021Y-57170793D01*
X255480266Y-57230646D01*
X255851091Y-57378501D01*
X256210449Y-57547672D01*
X256559509Y-57738778D01*
X256899442Y-57952441D01*
X257231417Y-58189278D01*
X257231743Y-58189525D01*
X257522475Y-58422969D01*
X257795919Y-58669624D01*
X258049935Y-58927441D01*
X258282378Y-59194372D01*
X258323313Y-59243808D01*
X258430734Y-59365454D01*
X258532117Y-59467127D01*
X258630055Y-59550918D01*
X258727139Y-59618917D01*
X258825961Y-59673214D01*
X258929113Y-59715898D01*
X258931754Y-59716833D01*
X258961113Y-59727245D01*
X258988257Y-59736594D01*
X259014604Y-59744941D01*
X259041575Y-59752346D01*
X259070588Y-59758870D01*
X259103062Y-59764574D01*
X259140415Y-59769517D01*
X259184066Y-59773762D01*
X259235435Y-59777367D01*
X259295940Y-59780395D01*
X259296110Y-59780401D01*
X259367001Y-59782905D01*
G37*
%TO.C,SW2*%
X197143400Y-61426800D02*
X195143400Y-61426800D01*
X193843400Y-60426800D02*
X193393400Y-59976800D01*
X198443400Y-60426800D02*
X198893400Y-59976800D01*
X193393400Y-59976800D02*
X193393400Y-57376800D01*
X198893400Y-59976800D02*
X198893400Y-57376800D01*
X193843400Y-56926800D02*
X193393400Y-57376800D01*
X198443400Y-56926800D02*
X198893400Y-57376800D01*
X197143400Y-55926800D02*
X195143400Y-55926800D01*
%TO.C,SW1*%
X202551000Y-55926800D02*
X204551000Y-55926800D01*
X205851000Y-56926800D02*
X206301000Y-57376800D01*
X201251000Y-56926800D02*
X200801000Y-57376800D01*
X206301000Y-57376800D02*
X206301000Y-59976800D01*
X200801000Y-57376800D02*
X200801000Y-59976800D01*
X205851000Y-60426800D02*
X206301000Y-59976800D01*
X201251000Y-60426800D02*
X200801000Y-59976800D01*
X202551000Y-61426800D02*
X204551000Y-61426800D01*
%TD*%
%LPC*%
D14*
%TO.C,J4*%
X203666000Y-144598500D03*
D15*
X203666000Y-148558500D03*
X203666000Y-152518500D03*
%TD*%
D14*
%TO.C,J1*%
X208280000Y-144579200D03*
D15*
X208280000Y-148539200D03*
X208280000Y-152499200D03*
%TD*%
D16*
%TO.C,J11*%
X227324600Y-49819400D03*
D17*
X227324600Y-47319400D03*
D18*
X225324600Y-45719400D03*
%TD*%
D19*
%TO.C,J2*%
X194825700Y-147060400D03*
D20*
X194825700Y-153060400D03*
D21*
X199525700Y-150060400D03*
%TD*%
D22*
%TO.C,J8*%
X203185800Y-95396800D03*
X203185800Y-89616800D03*
D23*
X202665800Y-96826800D03*
D24*
X206865800Y-96826800D03*
D23*
X202665800Y-88186800D03*
D24*
X206865800Y-88186800D03*
%TD*%
D16*
%TO.C,J15*%
X227365400Y-59547200D03*
D17*
X227365400Y-57047200D03*
D18*
X225365400Y-55447200D03*
%TD*%
%TO.C,J12*%
X225365400Y-75239200D03*
D17*
X227365400Y-76839200D03*
D16*
X227365400Y-79339200D03*
%TD*%
D18*
%TO.C,J13*%
X225365400Y-65313200D03*
D17*
X227365400Y-66913200D03*
D16*
X227365400Y-69413200D03*
%TD*%
D25*
%TO.C,F1*%
X197053200Y-141986000D03*
D26*
X197053200Y-133986000D03*
%TD*%
D27*
%TO.C,J6*%
X207700000Y-109000000D03*
%TD*%
D28*
%TO.C,U4*%
X203849600Y-83464400D03*
X203849600Y-80924400D03*
X203849600Y-78384400D03*
X196149600Y-78384400D03*
X196149600Y-80924400D03*
X196149600Y-83464400D03*
%TD*%
D27*
%TO.C,J3*%
X191770000Y-83312000D03*
%TD*%
D29*
%TO.C,SW2*%
X198018400Y-61676800D03*
X198018400Y-55676800D03*
X194268400Y-61676800D03*
X194268400Y-55676800D03*
%TD*%
%TO.C,SW1*%
X201676000Y-55676800D03*
X201676000Y-61676800D03*
X205426000Y-55676800D03*
X205426000Y-61676800D03*
%TD*%
%LPD*%
M02*
