%TF.GenerationSoftware,KiCad,Pcbnew,7.0.6*%
%TF.CreationDate,2023-07-31T04:45:06-07:00*%
%TF.ProjectId,LED_Wled,4c45445f-576c-4656-942e-6b696361645f,rev?*%
%TF.SameCoordinates,Original*%
%TF.FileFunction,Legend,Top*%
%TF.FilePolarity,Positive*%
%FSLAX46Y46*%
G04 Gerber Fmt 4.6, Leading zero omitted, Abs format (unit mm)*
G04 Created by KiCad (PCBNEW 7.0.6) date 2023-07-31 04:45:06*
%MOMM*%
%LPD*%
G01*
G04 APERTURE LIST*
G04 Aperture macros list*
%AMRoundRect*
0 Rectangle with rounded corners*
0 $1 Rounding radius*
0 $2 $3 $4 $5 $6 $7 $8 $9 X,Y pos of 4 corners*
0 Add a 4 corners polygon primitive as box body*
4,1,4,$2,$3,$4,$5,$6,$7,$8,$9,$2,$3,0*
0 Add four circle primitives for the rounded corners*
1,1,$1+$1,$2,$3*
1,1,$1+$1,$4,$5*
1,1,$1+$1,$6,$7*
1,1,$1+$1,$8,$9*
0 Add four rect primitives between the rounded corners*
20,1,$1+$1,$2,$3,$4,$5,0*
20,1,$1+$1,$4,$5,$6,$7,0*
20,1,$1+$1,$6,$7,$8,$9,0*
20,1,$1+$1,$8,$9,$2,$3,0*%
%AMFreePoly0*
4,1,6,1.000000,0.000000,0.500000,-0.750000,-0.500000,-0.750000,-0.500000,0.750000,0.500000,0.750000,1.000000,0.000000,1.000000,0.000000,$1*%
G04 Aperture macros list end*
%ADD10C,0.150000*%
%ADD11C,0.120000*%
%ADD12C,0.127000*%
%ADD13C,0.200000*%
%ADD14R,2.000000X1.780000*%
%ADD15RoundRect,0.250000X-0.400000X-0.625000X0.400000X-0.625000X0.400000X0.625000X-0.400000X0.625000X0*%
%ADD16RoundRect,0.250000X-0.262500X-0.450000X0.262500X-0.450000X0.262500X0.450000X-0.262500X0.450000X0*%
%ADD17RoundRect,0.250000X-0.325000X-0.650000X0.325000X-0.650000X0.325000X0.650000X-0.325000X0.650000X0*%
%ADD18RoundRect,0.250000X1.000000X-1.750000X1.000000X1.750000X-1.000000X1.750000X-1.000000X-1.750000X0*%
%ADD19RoundRect,0.225000X0.375000X-0.225000X0.375000X0.225000X-0.375000X0.225000X-0.375000X-0.225000X0*%
%ADD20RoundRect,0.250000X-0.450000X0.262500X-0.450000X-0.262500X0.450000X-0.262500X0.450000X0.262500X0*%
%ADD21RoundRect,0.250000X0.650000X-0.325000X0.650000X0.325000X-0.650000X0.325000X-0.650000X-0.325000X0*%
%ADD22R,0.250000X0.750000*%
%ADD23RoundRect,0.250001X-1.099999X1.099999X-1.099999X-1.099999X1.099999X-1.099999X1.099999X1.099999X0*%
%ADD24C,2.700000*%
%ADD25RoundRect,0.250000X0.262500X0.450000X-0.262500X0.450000X-0.262500X-0.450000X0.262500X-0.450000X0*%
%ADD26RoundRect,0.150000X-0.825000X-0.150000X0.825000X-0.150000X0.825000X0.150000X-0.825000X0.150000X0*%
%ADD27R,1.500000X1.500000*%
%ADD28FreePoly0,90.000000*%
%ADD29FreePoly0,270.000000*%
%ADD30RoundRect,0.150000X0.150000X0.200000X-0.150000X0.200000X-0.150000X-0.200000X0.150000X-0.200000X0*%
%ADD31RoundRect,0.237500X0.300000X0.237500X-0.300000X0.237500X-0.300000X-0.237500X0.300000X-0.237500X0*%
%ADD32RoundRect,0.250000X0.450000X-0.262500X0.450000X0.262500X-0.450000X0.262500X-0.450000X-0.262500X0*%
%ADD33R,2.500000X1.800000*%
%ADD34O,2.000000X1.700000*%
%ADD35RoundRect,0.250000X-0.750000X0.600000X-0.750000X-0.600000X0.750000X-0.600000X0.750000X0.600000X0*%
%ADD36C,1.200000*%
%ADD37R,3.500000X3.500000*%
%ADD38RoundRect,0.750000X1.000000X-0.750000X1.000000X0.750000X-1.000000X0.750000X-1.000000X-0.750000X0*%
%ADD39RoundRect,0.875000X0.875000X-0.875000X0.875000X0.875000X-0.875000X0.875000X-0.875000X-0.875000X0*%
%ADD40RoundRect,0.200000X0.200000X0.275000X-0.200000X0.275000X-0.200000X-0.275000X0.200000X-0.275000X0*%
%ADD41R,2.000000X1.500000*%
%ADD42R,2.000000X3.800000*%
%ADD43RoundRect,0.150000X-0.587500X-0.150000X0.587500X-0.150000X0.587500X0.150000X-0.587500X0.150000X0*%
%ADD44RoundRect,0.062500X0.337500X0.062500X-0.337500X0.062500X-0.337500X-0.062500X0.337500X-0.062500X0*%
%ADD45RoundRect,0.062500X0.062500X0.337500X-0.062500X0.337500X-0.062500X-0.337500X0.062500X-0.337500X0*%
%ADD46R,3.350000X3.350000*%
%ADD47C,0.650000*%
%ADD48R,1.240000X0.600000*%
%ADD49R,1.240000X0.300000*%
%ADD50O,2.100000X1.000000*%
%ADD51O,1.800000X1.000000*%
%ADD52R,1.100000X1.100000*%
%ADD53RoundRect,0.155000X0.212500X0.155000X-0.212500X0.155000X-0.212500X-0.155000X0.212500X-0.155000X0*%
%ADD54RoundRect,0.225000X0.225000X0.250000X-0.225000X0.250000X-0.225000X-0.250000X0.225000X-0.250000X0*%
%ADD55R,1.500000X0.900000*%
%ADD56R,0.900000X1.500000*%
%ADD57R,0.900000X0.900000*%
%ADD58RoundRect,0.200000X0.275000X-0.200000X0.275000X0.200000X-0.275000X0.200000X-0.275000X-0.200000X0*%
%ADD59R,0.610000X1.910000*%
%ADD60R,1.550000X1.205000*%
%ADD61RoundRect,0.155000X0.155000X-0.212500X0.155000X0.212500X-0.155000X0.212500X-0.155000X-0.212500X0*%
%ADD62RoundRect,0.225000X0.250000X-0.225000X0.250000X0.225000X-0.250000X0.225000X-0.250000X-0.225000X0*%
%ADD63RoundRect,0.155000X-0.212500X-0.155000X0.212500X-0.155000X0.212500X0.155000X-0.212500X0.155000X0*%
%ADD64RoundRect,0.250000X-0.650000X0.325000X-0.650000X-0.325000X0.650000X-0.325000X0.650000X0.325000X0*%
%ADD65R,3.750000X9.500000*%
%ADD66RoundRect,0.200000X-0.275000X0.200000X-0.275000X-0.200000X0.275000X-0.200000X0.275000X0.200000X0*%
%ADD67O,3.800000X5.500000*%
%ADD68O,3.800000X5.300000*%
%ADD69RoundRect,0.250000X0.300000X0.300000X-0.300000X0.300000X-0.300000X-0.300000X0.300000X-0.300000X0*%
%ADD70RoundRect,0.237500X-0.237500X0.300000X-0.237500X-0.300000X0.237500X-0.300000X0.237500X0.300000X0*%
%ADD71RoundRect,0.150000X0.587500X0.150000X-0.587500X0.150000X-0.587500X-0.150000X0.587500X-0.150000X0*%
%ADD72R,0.900000X1.200000*%
%ADD73RoundRect,0.225000X-0.250000X0.225000X-0.250000X-0.225000X0.250000X-0.225000X0.250000X0.225000X0*%
%ADD74C,1.500000*%
G04 APERTURE END LIST*
D10*
X193952019Y-136214685D02*
X193952019Y-136786113D01*
X193952019Y-136500399D02*
X192952019Y-136500399D01*
X192952019Y-136500399D02*
X193094876Y-136595637D01*
X193094876Y-136595637D02*
X193190114Y-136690875D01*
X193190114Y-136690875D02*
X193237733Y-136786113D01*
X192952019Y-130083732D02*
X192952019Y-129464685D01*
X192952019Y-129464685D02*
X193332971Y-129798018D01*
X193332971Y-129798018D02*
X193332971Y-129655161D01*
X193332971Y-129655161D02*
X193380590Y-129559923D01*
X193380590Y-129559923D02*
X193428209Y-129512304D01*
X193428209Y-129512304D02*
X193523447Y-129464685D01*
X193523447Y-129464685D02*
X193761542Y-129464685D01*
X193761542Y-129464685D02*
X193856780Y-129512304D01*
X193856780Y-129512304D02*
X193904400Y-129559923D01*
X193904400Y-129559923D02*
X193952019Y-129655161D01*
X193952019Y-129655161D02*
X193952019Y-129940875D01*
X193952019Y-129940875D02*
X193904400Y-130036113D01*
X193904400Y-130036113D02*
X193856780Y-130083732D01*
X193952019Y-142278685D02*
X193952019Y-142850113D01*
X193952019Y-142564399D02*
X192952019Y-142564399D01*
X192952019Y-142564399D02*
X193094876Y-142659637D01*
X193094876Y-142659637D02*
X193190114Y-142754875D01*
X193190114Y-142754875D02*
X193237733Y-142850113D01*
X192952019Y-136147732D02*
X192952019Y-135528685D01*
X192952019Y-135528685D02*
X193332971Y-135862018D01*
X193332971Y-135862018D02*
X193332971Y-135719161D01*
X193332971Y-135719161D02*
X193380590Y-135623923D01*
X193380590Y-135623923D02*
X193428209Y-135576304D01*
X193428209Y-135576304D02*
X193523447Y-135528685D01*
X193523447Y-135528685D02*
X193761542Y-135528685D01*
X193761542Y-135528685D02*
X193856780Y-135576304D01*
X193856780Y-135576304D02*
X193904400Y-135623923D01*
X193904400Y-135623923D02*
X193952019Y-135719161D01*
X193952019Y-135719161D02*
X193952019Y-136004875D01*
X193952019Y-136004875D02*
X193904400Y-136100113D01*
X193904400Y-136100113D02*
X193856780Y-136147732D01*
D11*
%TO.C,U10*%
X220534400Y-66945200D02*
X215634400Y-66945200D01*
X220534400Y-72145200D02*
X220534400Y-66945200D01*
X215634400Y-72145200D02*
X217084400Y-72145200D01*
X219084400Y-72145200D02*
X220534400Y-72145200D01*
X215634400Y-66945200D02*
X215634400Y-72145200D01*
X219084400Y-72145200D02*
G75*
G03*
X217084400Y-72145200I-1000000J0D01*
G01*
%TO.C,U9*%
X220534400Y-76851200D02*
X215634400Y-76851200D01*
X220534400Y-82051200D02*
X220534400Y-76851200D01*
X215634400Y-82051200D02*
X217084400Y-82051200D01*
X219084400Y-82051200D02*
X220534400Y-82051200D01*
X215634400Y-76851200D02*
X215634400Y-82051200D01*
X219084400Y-82051200D02*
G75*
G03*
X217084400Y-82051200I-1000000J0D01*
G01*
%TO.C,U8*%
X219043600Y-52551400D02*
G75*
G03*
X217043600Y-52551400I-1000000J0D01*
G01*
X215593600Y-47351400D02*
X215593600Y-52551400D01*
X219043600Y-52551400D02*
X220493600Y-52551400D01*
X215593600Y-52551400D02*
X217043600Y-52551400D01*
X220493600Y-52551400D02*
X220493600Y-47351400D01*
X220493600Y-47351400D02*
X215593600Y-47351400D01*
%TO.C,U7*%
X219084400Y-62239200D02*
G75*
G03*
X217084400Y-62239200I-1000000J0D01*
G01*
X215634400Y-57039200D02*
X215634400Y-62239200D01*
X219084400Y-62239200D02*
X220534400Y-62239200D01*
X215634400Y-62239200D02*
X217084400Y-62239200D01*
X220534400Y-62239200D02*
X220534400Y-57039200D01*
X220534400Y-57039200D02*
X215634400Y-57039200D01*
%TO.C,R28*%
X219993536Y-46411400D02*
X221447664Y-46411400D01*
X219993536Y-44591400D02*
X221447664Y-44591400D01*
%TO.C,R15*%
X202210936Y-85371000D02*
X202665064Y-85371000D01*
X202210936Y-86841000D02*
X202665064Y-86841000D01*
%TO.C,C4*%
X191924148Y-123194400D02*
X193346652Y-123194400D01*
X191924148Y-125014400D02*
X193346652Y-125014400D01*
%TO.C,C2*%
X192740000Y-108750000D02*
X192740000Y-107750000D01*
X192240000Y-108250000D02*
X193240000Y-108250000D01*
X192054437Y-107510000D02*
X193740000Y-107510000D01*
X192054437Y-107510000D02*
X190990000Y-106445563D01*
X198445563Y-107510000D02*
X196760000Y-107510000D01*
X198445563Y-107510000D02*
X199510000Y-106445563D01*
X190990000Y-106445563D02*
X190990000Y-98990000D01*
X199510000Y-106445563D02*
X199510000Y-98990000D01*
X190990000Y-98990000D02*
X193740000Y-98990000D01*
X199510000Y-98990000D02*
X196760000Y-98990000D01*
%TO.C,D9*%
X198593200Y-98778400D02*
X200593200Y-98778400D01*
X198593200Y-98778400D02*
X198593200Y-94768400D01*
X200593200Y-98778400D02*
X200593200Y-94768400D01*
%TO.C,R20*%
X207671100Y-67982136D02*
X207671100Y-68436264D01*
X206201100Y-67982136D02*
X206201100Y-68436264D01*
%TO.C,C26*%
X197464000Y-80619652D02*
X197464000Y-79197148D01*
X199284000Y-80619652D02*
X199284000Y-79197148D01*
%TO.C,U1*%
X205429000Y-86136000D02*
X205529000Y-86136000D01*
X205529000Y-86136000D02*
X205529000Y-86536000D01*
X207829000Y-86136000D02*
X207629000Y-86136000D01*
X207829000Y-86136000D02*
X207829000Y-83536000D01*
X205429000Y-83536000D02*
X205429000Y-86136000D01*
X205629000Y-83536000D02*
X205429000Y-83536000D01*
X207829000Y-83536000D02*
X207629000Y-83536000D01*
%TO.C,C15*%
X200715200Y-80619652D02*
X200715200Y-79197148D01*
X202535200Y-80619652D02*
X202535200Y-79197148D01*
%TO.C,R32*%
X220034336Y-64185200D02*
X221488464Y-64185200D01*
X220034336Y-66005200D02*
X221488464Y-66005200D01*
%TO.C,R1*%
X204290664Y-66063800D02*
X203836536Y-66063800D01*
X204290664Y-64593800D02*
X203836536Y-64593800D01*
%TO.C,Q2*%
X205994000Y-135490800D02*
X202544000Y-135490800D01*
X205994000Y-135490800D02*
X207944000Y-135490800D01*
X205994000Y-140610800D02*
X204044000Y-140610800D01*
X205994000Y-140610800D02*
X207944000Y-140610800D01*
%TO.C,J1*%
X208580000Y-141719200D02*
X208280000Y-142319200D01*
X207980000Y-141719200D02*
X208580000Y-141719200D01*
X208280000Y-142319200D02*
X207980000Y-141719200D01*
X210390000Y-142519200D02*
X210390000Y-143719200D01*
X203370000Y-142519200D02*
X210390000Y-142519200D01*
X212090000Y-143719200D02*
X212090000Y-153359200D01*
X210390000Y-143719200D02*
X212090000Y-143719200D01*
X212090000Y-153359200D02*
X210390000Y-153359200D01*
X210390000Y-153359200D02*
X210390000Y-154559200D01*
X210390000Y-154559200D02*
X203370000Y-154559200D01*
X203370000Y-154559200D02*
X203370000Y-142519200D01*
%TO.C,JP1*%
X192497200Y-135900400D02*
X192497200Y-130400400D01*
X194447200Y-135900400D02*
X192497200Y-135900400D01*
X192497200Y-130400400D02*
X194447200Y-130400400D01*
X194447200Y-130400400D02*
X194447200Y-135900400D01*
%TO.C,D8*%
X198231600Y-91094000D02*
X198231600Y-92294000D01*
X200191600Y-91094000D02*
X198231600Y-91094000D01*
X200191600Y-92294000D02*
X198231600Y-92294000D01*
%TO.C,C19*%
X197758267Y-65838800D02*
X197465733Y-65838800D01*
X197758267Y-64818800D02*
X197465733Y-64818800D01*
%TO.C,R25*%
X190171400Y-95934264D02*
X190171400Y-95480136D01*
X191641400Y-95934264D02*
X191641400Y-95480136D01*
%TO.C,R3*%
X209726200Y-85116936D02*
X209726200Y-85571064D01*
X208256200Y-85116936D02*
X208256200Y-85571064D01*
%TO.C,D4*%
X195600000Y-120600000D02*
X195600000Y-123900000D01*
X195600000Y-120600000D02*
X201000000Y-120600000D01*
X195600000Y-123900000D02*
X201000000Y-123900000D01*
%TO.C,J11*%
X223814600Y-52379400D02*
X229784600Y-52379400D01*
X229784600Y-52379400D02*
X229784600Y-44759400D01*
X227524600Y-52369400D02*
X227524600Y-51619400D01*
X229024600Y-52369400D02*
X229774600Y-52369400D01*
X229774600Y-52369400D02*
X229774600Y-50569400D01*
X224574600Y-51619400D02*
X224574600Y-48569400D01*
X227524600Y-51619400D02*
X224574600Y-51619400D01*
X229024600Y-50569400D02*
X229024600Y-52369400D01*
X229774600Y-50569400D02*
X229024600Y-50569400D01*
X229024600Y-49069400D02*
X229774600Y-49069400D01*
X229774600Y-49069400D02*
X229774600Y-48069400D01*
X224574600Y-48569400D02*
X224574600Y-46579400D01*
X229024600Y-48069400D02*
X229024600Y-49069400D01*
X229774600Y-48069400D02*
X229024600Y-48069400D01*
X229024600Y-46569400D02*
X229774600Y-46569400D01*
X229774600Y-46569400D02*
X229774600Y-44769400D01*
X230074600Y-45719400D02*
X230074600Y-44469400D01*
X227524600Y-45519400D02*
X226184600Y-45519400D01*
X227524600Y-44769400D02*
X227524600Y-45519400D01*
X229024600Y-44769400D02*
X229024600Y-46569400D01*
X229774600Y-44769400D02*
X229024600Y-44769400D01*
X223814600Y-44759400D02*
X223814600Y-52379400D01*
X229784600Y-44759400D02*
X223814600Y-44759400D01*
X230074600Y-44469400D02*
X228824600Y-44469400D01*
%TO.C,Q4*%
X205994000Y-129990800D02*
X202544000Y-129990800D01*
X205994000Y-129990800D02*
X207944000Y-129990800D01*
X205994000Y-135110800D02*
X204044000Y-135110800D01*
X205994000Y-135110800D02*
X207944000Y-135110800D01*
%TO.C,J2*%
X190225700Y-160860400D02*
X190225700Y-146160400D01*
X199425700Y-160860400D02*
X190225700Y-160860400D01*
X199425700Y-152060400D02*
X199425700Y-160860400D01*
X190025700Y-147010400D02*
X190025700Y-145960400D01*
X190225700Y-146160400D02*
X192825700Y-146160400D01*
X196725700Y-146160400D02*
X199425700Y-146160400D01*
X199425700Y-146160400D02*
X199425700Y-148060400D01*
X191075700Y-145960400D02*
X190025700Y-145960400D01*
%TO.C,R6*%
X200541658Y-127624100D02*
X200067142Y-127624100D01*
X200541658Y-126579100D02*
X200067142Y-126579100D01*
%TO.C,U12*%
X209535200Y-77273200D02*
X203525200Y-77273200D01*
X207285200Y-70453200D02*
X203525200Y-70453200D01*
X203525200Y-77273200D02*
X203525200Y-76013200D01*
X203525200Y-70453200D02*
X203525200Y-71713200D01*
%TO.C,Q8*%
X193852800Y-94147200D02*
X192177800Y-94147200D01*
X193852800Y-94147200D02*
X194502800Y-94147200D01*
X193852800Y-97267200D02*
X193202800Y-97267200D01*
X193852800Y-97267200D02*
X194502800Y-97267200D01*
%TO.C,R8*%
X220034336Y-56139200D02*
X221488464Y-56139200D01*
X220034336Y-54319200D02*
X221488464Y-54319200D01*
%TO.C,U6*%
X197578000Y-88169600D02*
X197578000Y-88894600D01*
X196853000Y-93389600D02*
X197578000Y-93389600D01*
X196853000Y-88169600D02*
X197578000Y-88169600D01*
X193083000Y-93389600D02*
X192358000Y-93389600D01*
X193083000Y-88169600D02*
X192358000Y-88169600D01*
X192358000Y-93389600D02*
X192358000Y-92664600D01*
X192358000Y-88169600D02*
X192358000Y-88894600D01*
%TO.C,J8*%
X203940800Y-97086800D02*
X205860800Y-97086800D01*
X209575800Y-97086800D02*
X207870800Y-97086800D01*
X205860800Y-87926800D02*
X203940800Y-87926800D01*
X207870800Y-87926800D02*
X209575800Y-87926800D01*
X209575800Y-87926800D02*
X209575800Y-97086800D01*
%TO.C,R13*%
X192403464Y-86434600D02*
X191949336Y-86434600D01*
X192403464Y-84964600D02*
X191949336Y-84964600D01*
%TO.C,D3*%
X194497200Y-125635200D02*
X192497200Y-125635200D01*
X194497200Y-125635200D02*
X194497200Y-129485200D01*
X192497200Y-125635200D02*
X192497200Y-129485200D01*
%TO.C,J9*%
X190820000Y-82362000D02*
X192720000Y-82362000D01*
X190820000Y-84262000D02*
X190820000Y-82362000D01*
X192720000Y-82362000D02*
X192720000Y-84262000D01*
X192720000Y-84262000D02*
X190820000Y-84262000D01*
%TO.C,R30*%
X220034336Y-74111200D02*
X221488464Y-74111200D01*
X220034336Y-75931200D02*
X221488464Y-75931200D01*
%TO.C,C16*%
X207176635Y-65688800D02*
X206944965Y-65688800D01*
X207176635Y-64968800D02*
X206944965Y-64968800D01*
%TO.C,J7*%
X190464400Y-108168400D02*
X192364400Y-108168400D01*
X190464400Y-110068400D02*
X190464400Y-108168400D01*
X192364400Y-108168400D02*
X192364400Y-110068400D01*
X192364400Y-110068400D02*
X190464400Y-110068400D01*
%TO.C,C25*%
X191859780Y-81231200D02*
X191578620Y-81231200D01*
X191859780Y-80211200D02*
X191578620Y-80211200D01*
%TO.C,D2*%
X202750000Y-120600000D02*
X202750000Y-123900000D01*
X202750000Y-120600000D02*
X208150000Y-120600000D01*
X202750000Y-123900000D02*
X208150000Y-123900000D01*
%TO.C,Q3*%
X196776100Y-127675200D02*
X195101100Y-127675200D01*
X196776100Y-127675200D02*
X197426100Y-127675200D01*
X196776100Y-130795200D02*
X196126100Y-130795200D01*
X196776100Y-130795200D02*
X197426100Y-130795200D01*
D12*
%TO.C,U5*%
X190999600Y-37643600D02*
X208999600Y-37643600D01*
X190999600Y-44363600D02*
X190999600Y-37643600D01*
X190999600Y-62413600D02*
X190999600Y-63143600D01*
X190999600Y-63143600D02*
X192244600Y-63143600D01*
X208999600Y-37643600D02*
X208999600Y-44363600D01*
X208999600Y-62413600D02*
X208999600Y-63143600D01*
X208999600Y-63143600D02*
X207754600Y-63143600D01*
D13*
X189899600Y-45133600D02*
G75*
G03*
X189899600Y-45133600I-100000J0D01*
G01*
D11*
%TO.C,R27*%
X215249964Y-54494200D02*
X214795836Y-54494200D01*
X215249964Y-55964200D02*
X214795836Y-55964200D01*
%TO.C,C27*%
X206806748Y-77830000D02*
X208229252Y-77830000D01*
X206806748Y-79650000D02*
X208229252Y-79650000D01*
%TO.C,R9*%
X193032500Y-110917258D02*
X193032500Y-110442742D01*
X194077500Y-110917258D02*
X194077500Y-110442742D01*
%TO.C,JP2*%
X192497200Y-141964400D02*
X192497200Y-136464400D01*
X194447200Y-141964400D02*
X192497200Y-141964400D01*
X192497200Y-136464400D02*
X194447200Y-136464400D01*
X194447200Y-136464400D02*
X194447200Y-141964400D01*
%TO.C,U3*%
X190514800Y-70453200D02*
X196524800Y-70453200D01*
X192764800Y-77273200D02*
X196524800Y-77273200D01*
X196524800Y-70453200D02*
X196524800Y-71713200D01*
X196524800Y-77273200D02*
X196524800Y-76013200D01*
%TO.C,C23*%
X206617835Y-82402000D02*
X206386165Y-82402000D01*
X206617835Y-81682000D02*
X206386165Y-81682000D01*
%TO.C,R12*%
X191595636Y-64644600D02*
X192049764Y-64644600D01*
X191595636Y-66114600D02*
X192049764Y-66114600D01*
%TO.C,C6*%
X191820748Y-77830000D02*
X193243252Y-77830000D01*
X191820748Y-79650000D02*
X193243252Y-79650000D01*
D10*
%TO.C,U2*%
X198080000Y-114205000D02*
X197880000Y-114205000D01*
X198080000Y-114205000D02*
X198080000Y-118355000D01*
X197880000Y-114205000D02*
X197880000Y-112905000D01*
X192930000Y-114205000D02*
X193130000Y-114205000D01*
X192930000Y-114205000D02*
X192930000Y-118355000D01*
X198080000Y-118355000D02*
X197880000Y-118355000D01*
X192930000Y-118355000D02*
X193130000Y-118355000D01*
D11*
%TO.C,D7*%
X198231600Y-92618000D02*
X198231600Y-93818000D01*
X200191600Y-92618000D02*
X198231600Y-92618000D01*
X200191600Y-93818000D02*
X198231600Y-93818000D01*
%TO.C,C17*%
X204364000Y-86094835D02*
X204364000Y-85863165D01*
X205084000Y-86094835D02*
X205084000Y-85863165D01*
%TO.C,R21*%
X194364700Y-68436264D02*
X194364700Y-67982136D01*
X195834700Y-68436264D02*
X195834700Y-67982136D01*
%TO.C,R31*%
X215296964Y-75756200D02*
X214842836Y-75756200D01*
X215296964Y-74286200D02*
X214842836Y-74286200D01*
%TO.C,R26*%
X190171400Y-92429064D02*
X190171400Y-91974936D01*
X191641400Y-92429064D02*
X191641400Y-91974936D01*
%TO.C,C14*%
X199540400Y-71920980D02*
X199540400Y-71639820D01*
X200560400Y-71920980D02*
X200560400Y-71639820D01*
%TO.C,C18*%
X194651365Y-65019600D02*
X194883035Y-65019600D01*
X194651365Y-65739600D02*
X194883035Y-65739600D01*
%TO.C,C20*%
X201924465Y-84222000D02*
X202156135Y-84222000D01*
X201924465Y-84942000D02*
X202156135Y-84942000D01*
%TO.C,C5*%
X192375200Y-117297148D02*
X192375200Y-118719652D01*
X190555200Y-117297148D02*
X190555200Y-118719652D01*
%TO.C,L1*%
X203255000Y-110630000D02*
X204655000Y-110630000D01*
X203255000Y-120030000D02*
X204655000Y-120030000D01*
%TO.C,D6*%
X195844000Y-94091200D02*
X195844000Y-95291200D01*
X197804000Y-94091200D02*
X195844000Y-94091200D01*
X197804000Y-95291200D02*
X195844000Y-95291200D01*
%TO.C,C28*%
X206540980Y-81231200D02*
X206259820Y-81231200D01*
X206540980Y-80211200D02*
X206259820Y-80211200D01*
%TO.C,J15*%
X223855400Y-62107200D02*
X229825400Y-62107200D01*
X229825400Y-62107200D02*
X229825400Y-54487200D01*
X227565400Y-62097200D02*
X227565400Y-61347200D01*
X229065400Y-62097200D02*
X229815400Y-62097200D01*
X229815400Y-62097200D02*
X229815400Y-60297200D01*
X224615400Y-61347200D02*
X224615400Y-58297200D01*
X227565400Y-61347200D02*
X224615400Y-61347200D01*
X229065400Y-60297200D02*
X229065400Y-62097200D01*
X229815400Y-60297200D02*
X229065400Y-60297200D01*
X229065400Y-58797200D02*
X229815400Y-58797200D01*
X229815400Y-58797200D02*
X229815400Y-57797200D01*
X224615400Y-58297200D02*
X224615400Y-56307200D01*
X229065400Y-57797200D02*
X229065400Y-58797200D01*
X229815400Y-57797200D02*
X229065400Y-57797200D01*
X229065400Y-56297200D02*
X229815400Y-56297200D01*
X229815400Y-56297200D02*
X229815400Y-54497200D01*
X230115400Y-55447200D02*
X230115400Y-54197200D01*
X227565400Y-55247200D02*
X226225400Y-55247200D01*
X227565400Y-54497200D02*
X227565400Y-55247200D01*
X229065400Y-54497200D02*
X229065400Y-56297200D01*
X229815400Y-54497200D02*
X229065400Y-54497200D01*
X223855400Y-54487200D02*
X223855400Y-62107200D01*
X229825400Y-54487200D02*
X223855400Y-54487200D01*
X230115400Y-54197200D02*
X228865400Y-54197200D01*
%TO.C,R22*%
X205689900Y-67982136D02*
X205689900Y-68436264D01*
X204219900Y-67982136D02*
X204219900Y-68436264D01*
%TO.C,J12*%
X230115400Y-73989200D02*
X228865400Y-73989200D01*
X229825400Y-74279200D02*
X223855400Y-74279200D01*
X223855400Y-74279200D02*
X223855400Y-81899200D01*
X229815400Y-74289200D02*
X229065400Y-74289200D01*
X229065400Y-74289200D02*
X229065400Y-76089200D01*
X227565400Y-74289200D02*
X227565400Y-75039200D01*
X227565400Y-75039200D02*
X226225400Y-75039200D01*
X230115400Y-75239200D02*
X230115400Y-73989200D01*
X229815400Y-76089200D02*
X229815400Y-74289200D01*
X229065400Y-76089200D02*
X229815400Y-76089200D01*
X229815400Y-77589200D02*
X229065400Y-77589200D01*
X229065400Y-77589200D02*
X229065400Y-78589200D01*
X224615400Y-78089200D02*
X224615400Y-76099200D01*
X229815400Y-78589200D02*
X229815400Y-77589200D01*
X229065400Y-78589200D02*
X229815400Y-78589200D01*
X229815400Y-80089200D02*
X229065400Y-80089200D01*
X229065400Y-80089200D02*
X229065400Y-81889200D01*
X227565400Y-81139200D02*
X224615400Y-81139200D01*
X224615400Y-81139200D02*
X224615400Y-78089200D01*
X229815400Y-81889200D02*
X229815400Y-80089200D01*
X229065400Y-81889200D02*
X229815400Y-81889200D01*
X227565400Y-81889200D02*
X227565400Y-81139200D01*
X229825400Y-81899200D02*
X229825400Y-74279200D01*
X223855400Y-81899200D02*
X229825400Y-81899200D01*
%TO.C,R14*%
X195857864Y-86434600D02*
X195403736Y-86434600D01*
X195857864Y-84964600D02*
X195403736Y-84964600D01*
%TO.C,J13*%
X230115400Y-64063200D02*
X228865400Y-64063200D01*
X229825400Y-64353200D02*
X223855400Y-64353200D01*
X223855400Y-64353200D02*
X223855400Y-71973200D01*
X229815400Y-64363200D02*
X229065400Y-64363200D01*
X229065400Y-64363200D02*
X229065400Y-66163200D01*
X227565400Y-64363200D02*
X227565400Y-65113200D01*
X227565400Y-65113200D02*
X226225400Y-65113200D01*
X230115400Y-65313200D02*
X230115400Y-64063200D01*
X229815400Y-66163200D02*
X229815400Y-64363200D01*
X229065400Y-66163200D02*
X229815400Y-66163200D01*
X229815400Y-67663200D02*
X229065400Y-67663200D01*
X229065400Y-67663200D02*
X229065400Y-68663200D01*
X224615400Y-68163200D02*
X224615400Y-66173200D01*
X229815400Y-68663200D02*
X229815400Y-67663200D01*
X229065400Y-68663200D02*
X229815400Y-68663200D01*
X229815400Y-70163200D02*
X229065400Y-70163200D01*
X229065400Y-70163200D02*
X229065400Y-71963200D01*
X227565400Y-71213200D02*
X224615400Y-71213200D01*
X224615400Y-71213200D02*
X224615400Y-68163200D01*
X229815400Y-71963200D02*
X229815400Y-70163200D01*
X229065400Y-71963200D02*
X229815400Y-71963200D01*
X227565400Y-71963200D02*
X227565400Y-71213200D01*
X229825400Y-71973200D02*
X229825400Y-64353200D01*
X223855400Y-71973200D02*
X229825400Y-71973200D01*
%TO.C,J5*%
X206750000Y-108050000D02*
X208650000Y-108050000D01*
X206750000Y-109950000D02*
X206750000Y-108050000D01*
X208650000Y-108050000D02*
X208650000Y-109950000D01*
X208650000Y-109950000D02*
X206750000Y-109950000D01*
%TO.C,R10*%
X196772200Y-125502936D02*
X196772200Y-125957064D01*
X195302200Y-125502936D02*
X195302200Y-125957064D01*
%TO.C,C21*%
X199180667Y-86412800D02*
X198888133Y-86412800D01*
X199180667Y-85392800D02*
X198888133Y-85392800D01*
%TO.C,C3*%
X191924148Y-120654400D02*
X193346652Y-120654400D01*
X191924148Y-122474400D02*
X193346652Y-122474400D01*
%TO.C,R7*%
X200064900Y-129188942D02*
X200064900Y-129663458D01*
X199019900Y-129188942D02*
X199019900Y-129663458D01*
%TO.C,Q5*%
X205994000Y-124490800D02*
X202544000Y-124490800D01*
X205994000Y-124490800D02*
X207944000Y-124490800D01*
X205994000Y-129610800D02*
X204044000Y-129610800D01*
X205994000Y-129610800D02*
X207944000Y-129610800D01*
%TO.C,F1*%
X195053200Y-139586000D02*
X195053200Y-136386000D01*
X197053200Y-138736000D02*
X197053200Y-137136000D01*
X199053200Y-136386000D02*
X199053200Y-139586000D01*
%TO.C,C1*%
X196945000Y-110820580D02*
X196945000Y-110539420D01*
X197965000Y-110820580D02*
X197965000Y-110539420D01*
%TO.C,D11*%
X202768400Y-109966000D02*
X202768400Y-107966000D01*
X202768400Y-109966000D02*
X198908400Y-109966000D01*
X202768400Y-107966000D02*
X198908400Y-107966000D01*
%TO.C,C22*%
X198071200Y-96984433D02*
X198071200Y-97276967D01*
X197051200Y-96984433D02*
X197051200Y-97276967D01*
%TO.C,R29*%
X215256164Y-44766400D02*
X214802036Y-44766400D01*
X215256164Y-46236400D02*
X214802036Y-46236400D01*
%TO.C,Q6*%
X198046100Y-69769200D02*
X199721100Y-69769200D01*
X198046100Y-69769200D02*
X197396100Y-69769200D01*
X198046100Y-66649200D02*
X198696100Y-66649200D01*
X198046100Y-66649200D02*
X197396100Y-66649200D01*
%TO.C,D5*%
X202046400Y-126222000D02*
X202046400Y-124222000D01*
X202046400Y-126222000D02*
X198146400Y-126222000D01*
X202046400Y-124222000D02*
X198146400Y-124222000D01*
%TO.C,R33*%
X215146464Y-65830200D02*
X214692336Y-65830200D01*
X215146464Y-64360200D02*
X214692336Y-64360200D01*
%TO.C,Q7*%
X202008500Y-66649200D02*
X200333500Y-66649200D01*
X202008500Y-66649200D02*
X202658500Y-66649200D01*
X202008500Y-69769200D02*
X201358500Y-69769200D01*
X202008500Y-69769200D02*
X202658500Y-69769200D01*
%TO.C,R4*%
X194770000Y-110707064D02*
X194770000Y-110252936D01*
X196240000Y-110707064D02*
X196240000Y-110252936D01*
%TO.C,C13*%
X202340000Y-108750000D02*
X202340000Y-107750000D01*
X201840000Y-108250000D02*
X202840000Y-108250000D01*
X201654437Y-107510000D02*
X203340000Y-107510000D01*
X201654437Y-107510000D02*
X200590000Y-106445563D01*
X208045563Y-107510000D02*
X206360000Y-107510000D01*
X208045563Y-107510000D02*
X209110000Y-106445563D01*
X200590000Y-106445563D02*
X200590000Y-98990000D01*
X209110000Y-106445563D02*
X209110000Y-98990000D01*
X200590000Y-98990000D02*
X203340000Y-98990000D01*
X209110000Y-98990000D02*
X206360000Y-98990000D01*
%TO.C,R24*%
X209726200Y-81613636D02*
X209726200Y-82067764D01*
X208256200Y-81613636D02*
X208256200Y-82067764D01*
%TO.C,R16*%
X200429800Y-88166836D02*
X200429800Y-88620964D01*
X198959800Y-88166836D02*
X198959800Y-88620964D01*
%TO.C,R19*%
X192383500Y-68438164D02*
X192383500Y-67984036D01*
X193853500Y-68438164D02*
X193853500Y-67984036D01*
%TO.C,C24*%
X200560400Y-75805420D02*
X200560400Y-76086580D01*
X199540400Y-75805420D02*
X199540400Y-76086580D01*
%TD*%
%LPC*%
D14*
%TO.C,U10*%
X221894400Y-70815200D03*
X221894400Y-68275200D03*
X214274400Y-68275200D03*
X214274400Y-70815200D03*
%TD*%
%TO.C,U9*%
X221894400Y-80721200D03*
X221894400Y-78181200D03*
X214274400Y-78181200D03*
X214274400Y-80721200D03*
%TD*%
%TO.C,U8*%
X214233600Y-51221400D03*
X214233600Y-48681400D03*
X221853600Y-48681400D03*
X221853600Y-51221400D03*
%TD*%
%TO.C,U7*%
X214274400Y-60909200D03*
X214274400Y-58369200D03*
X221894400Y-58369200D03*
X221894400Y-60909200D03*
%TD*%
D15*
%TO.C,R28*%
X222270600Y-45501400D03*
X219170600Y-45501400D03*
%TD*%
D16*
%TO.C,R15*%
X201525500Y-86106000D03*
X203350500Y-86106000D03*
%TD*%
D17*
%TO.C,C4*%
X191160400Y-124104400D03*
X194110400Y-124104400D03*
%TD*%
D18*
%TO.C,C2*%
X195250000Y-106300000D03*
X195250000Y-100200000D03*
%TD*%
D19*
%TO.C,D9*%
X199593200Y-98068400D03*
X199593200Y-94768400D03*
%TD*%
D20*
%TO.C,R20*%
X206936100Y-67296700D03*
X206936100Y-69121700D03*
%TD*%
D21*
%TO.C,C26*%
X198374000Y-81383400D03*
X198374000Y-78433400D03*
%TD*%
D22*
%TO.C,U1*%
X205879000Y-86386000D03*
X206379000Y-86386000D03*
X206879000Y-86386000D03*
X207379000Y-86386000D03*
X207379000Y-83286000D03*
X206879000Y-83286000D03*
X206379000Y-83286000D03*
X205879000Y-83286000D03*
%TD*%
D23*
%TO.C,J4*%
X203666000Y-144598500D03*
D24*
X203666000Y-148558500D03*
X203666000Y-152518500D03*
%TD*%
D21*
%TO.C,C15*%
X201625200Y-81383400D03*
X201625200Y-78433400D03*
%TD*%
D15*
%TO.C,R32*%
X219211400Y-65095200D03*
X222311400Y-65095200D03*
%TD*%
D25*
%TO.C,R1*%
X204976100Y-65328800D03*
X203151100Y-65328800D03*
%TD*%
D26*
%TO.C,Q2*%
X203519000Y-136145800D03*
X203519000Y-137415800D03*
X203519000Y-138685800D03*
X203519000Y-139955800D03*
X208469000Y-139955800D03*
X208469000Y-138685800D03*
X208469000Y-137415800D03*
X208469000Y-136145800D03*
%TD*%
D23*
%TO.C,J1*%
X208280000Y-144579200D03*
D24*
X208280000Y-148539200D03*
X208280000Y-152499200D03*
%TD*%
D27*
%TO.C,JP1*%
X193497200Y-134350400D03*
X193497200Y-131950400D03*
D28*
X193497200Y-135150400D03*
D29*
X193497200Y-131150400D03*
%TD*%
D30*
%TO.C,D8*%
X198791600Y-91694000D03*
X200191600Y-91694000D03*
%TD*%
D31*
%TO.C,C19*%
X198474500Y-65328800D03*
X196749500Y-65328800D03*
%TD*%
D32*
%TO.C,R25*%
X190906400Y-96619700D03*
X190906400Y-94794700D03*
%TD*%
D20*
%TO.C,R3*%
X208991200Y-84431500D03*
X208991200Y-86256500D03*
%TD*%
D33*
%TO.C,D4*%
X197000000Y-122250000D03*
X201000000Y-122250000D03*
%TD*%
D34*
%TO.C,J11*%
X227324600Y-49819400D03*
D35*
X227324600Y-47319400D03*
D36*
X225324600Y-45719400D03*
%TD*%
D26*
%TO.C,Q4*%
X203519000Y-130645800D03*
X203519000Y-131915800D03*
X203519000Y-133185800D03*
X203519000Y-134455800D03*
X208469000Y-134455800D03*
X208469000Y-133185800D03*
X208469000Y-131915800D03*
X208469000Y-130645800D03*
%TD*%
D37*
%TO.C,J2*%
X194825700Y-147060400D03*
D38*
X194825700Y-153060400D03*
D39*
X199525700Y-150060400D03*
%TD*%
D40*
%TO.C,R6*%
X201129400Y-127101600D03*
X199479400Y-127101600D03*
%TD*%
D41*
%TO.C,U12*%
X208585200Y-76163200D03*
X208585200Y-73863200D03*
D42*
X202285200Y-73863200D03*
D41*
X208585200Y-71563200D03*
%TD*%
D43*
%TO.C,Q8*%
X192915300Y-94757200D03*
X192915300Y-96657200D03*
X194790300Y-95707200D03*
%TD*%
D15*
%TO.C,R8*%
X222311400Y-55229200D03*
X219211400Y-55229200D03*
%TD*%
D44*
%TO.C,U6*%
X197418000Y-92279600D03*
X197418000Y-91779600D03*
X197418000Y-91279600D03*
X197418000Y-90779600D03*
X197418000Y-90279600D03*
X197418000Y-89779600D03*
X197418000Y-89279600D03*
D45*
X196468000Y-88329600D03*
X195968000Y-88329600D03*
X195468000Y-88329600D03*
X194968000Y-88329600D03*
X194468000Y-88329600D03*
X193968000Y-88329600D03*
X193468000Y-88329600D03*
D44*
X192518000Y-89279600D03*
X192518000Y-89779600D03*
X192518000Y-90279600D03*
X192518000Y-90779600D03*
X192518000Y-91279600D03*
X192518000Y-91779600D03*
X192518000Y-92279600D03*
D45*
X193468000Y-93229600D03*
X193968000Y-93229600D03*
X194468000Y-93229600D03*
X194968000Y-93229600D03*
X195468000Y-93229600D03*
X195968000Y-93229600D03*
X196468000Y-93229600D03*
D46*
X194968000Y-90779600D03*
%TD*%
D47*
%TO.C,J8*%
X203185800Y-95396800D03*
X203185800Y-89616800D03*
D48*
X202065800Y-95706800D03*
X202065800Y-94906800D03*
D49*
X202065800Y-93756800D03*
X202065800Y-92756800D03*
X202065800Y-92256800D03*
X202065800Y-91256800D03*
D48*
X202065800Y-90106800D03*
X202065800Y-89306800D03*
X202065800Y-89306800D03*
X202065800Y-90106800D03*
D49*
X202065800Y-90756800D03*
X202065800Y-91756800D03*
X202065800Y-93256800D03*
X202065800Y-94256800D03*
D48*
X202065800Y-94906800D03*
X202065800Y-95706800D03*
D50*
X202665800Y-96826800D03*
D51*
X206865800Y-96826800D03*
D50*
X202665800Y-88186800D03*
D51*
X206865800Y-88186800D03*
%TD*%
D25*
%TO.C,R13*%
X193088900Y-85699600D03*
X191263900Y-85699600D03*
%TD*%
D52*
%TO.C,D3*%
X193497200Y-126435200D03*
X193497200Y-129235200D03*
%TD*%
D27*
%TO.C,J9*%
X191770000Y-83312000D03*
%TD*%
D15*
%TO.C,R30*%
X219211400Y-75021200D03*
X222311400Y-75021200D03*
%TD*%
D53*
%TO.C,C16*%
X207628300Y-65328800D03*
X206493300Y-65328800D03*
%TD*%
D27*
%TO.C,J7*%
X191414400Y-109118400D03*
%TD*%
D54*
%TO.C,C25*%
X192494200Y-80721200D03*
X190944200Y-80721200D03*
%TD*%
D33*
%TO.C,D2*%
X204150000Y-122250000D03*
X208150000Y-122250000D03*
%TD*%
D43*
%TO.C,Q3*%
X195838600Y-128285200D03*
X195838600Y-130185200D03*
X197713600Y-129235200D03*
%TD*%
D55*
%TO.C,U5*%
X191249600Y-45133600D03*
X191249600Y-46403600D03*
X191249600Y-47673600D03*
X191249600Y-48943600D03*
X191249600Y-50213600D03*
X191249600Y-51483600D03*
X191249600Y-52753600D03*
X191249600Y-54023600D03*
X191249600Y-55293600D03*
X191249600Y-56563600D03*
X191249600Y-57833600D03*
X191249600Y-59103600D03*
X191249600Y-60373600D03*
X191249600Y-61643600D03*
D56*
X193014600Y-62893600D03*
X194284600Y-62893600D03*
X195554600Y-62893600D03*
X196824600Y-62893600D03*
X198094600Y-62893600D03*
X199364600Y-62893600D03*
X200634600Y-62893600D03*
X201904600Y-62893600D03*
X203174600Y-62893600D03*
X204444600Y-62893600D03*
X205714600Y-62893600D03*
X206984600Y-62893600D03*
D55*
X208749600Y-61643600D03*
X208749600Y-60373600D03*
X208749600Y-59103600D03*
X208749600Y-57833600D03*
X208749600Y-56563600D03*
X208749600Y-55293600D03*
X208749600Y-54023600D03*
X208749600Y-52753600D03*
X208749600Y-51483600D03*
X208749600Y-50213600D03*
X208749600Y-48943600D03*
X208749600Y-47673600D03*
X208749600Y-46403600D03*
X208749600Y-45133600D03*
D57*
X198499600Y-52853600D03*
X197099600Y-52853600D03*
X199899600Y-52853600D03*
X197099600Y-54253600D03*
X198499600Y-54253600D03*
X199899600Y-54253600D03*
X197099600Y-51453600D03*
X198499600Y-51453600D03*
X199899600Y-51453600D03*
%TD*%
D25*
%TO.C,R27*%
X214110400Y-55229200D03*
X215935400Y-55229200D03*
%TD*%
D17*
%TO.C,C27*%
X206043000Y-78740000D03*
X208993000Y-78740000D03*
%TD*%
D58*
%TO.C,R9*%
X193555000Y-111505000D03*
X193555000Y-109855000D03*
%TD*%
D27*
%TO.C,JP2*%
X193497200Y-140414400D03*
X193497200Y-138014400D03*
D28*
X193497200Y-141214400D03*
D29*
X193497200Y-137214400D03*
%TD*%
D41*
%TO.C,U3*%
X191464800Y-71563200D03*
X191464800Y-73863200D03*
D42*
X197764800Y-73863200D03*
D41*
X191464800Y-76163200D03*
%TD*%
D53*
%TO.C,C23*%
X207069500Y-82042000D03*
X205934500Y-82042000D03*
%TD*%
D16*
%TO.C,R12*%
X190910200Y-65379600D03*
X192735200Y-65379600D03*
%TD*%
D17*
%TO.C,C6*%
X191057000Y-78740000D03*
X194007000Y-78740000D03*
%TD*%
D59*
%TO.C,U2*%
X197410000Y-113500000D03*
X196140000Y-113500000D03*
X194870000Y-113500000D03*
X193600000Y-113500000D03*
X193600000Y-119060000D03*
X194870000Y-119060000D03*
X196140000Y-119060000D03*
X197410000Y-119060000D03*
D60*
X196280000Y-115677500D03*
X194730000Y-115677500D03*
X196280000Y-116882500D03*
X194730000Y-116882500D03*
%TD*%
D30*
%TO.C,D7*%
X198791600Y-93218000D03*
X200191600Y-93218000D03*
%TD*%
D61*
%TO.C,C17*%
X204724000Y-86546500D03*
X204724000Y-85411500D03*
%TD*%
D32*
%TO.C,R21*%
X195099700Y-69121700D03*
X195099700Y-67296700D03*
%TD*%
D25*
%TO.C,R31*%
X215982400Y-75021200D03*
X214157400Y-75021200D03*
%TD*%
D32*
%TO.C,R26*%
X190906400Y-93114500D03*
X190906400Y-91289500D03*
%TD*%
D62*
%TO.C,C14*%
X200050400Y-72555400D03*
X200050400Y-71005400D03*
%TD*%
D63*
%TO.C,C18*%
X194199700Y-65379600D03*
X195334700Y-65379600D03*
%TD*%
%TO.C,C20*%
X201472800Y-84582000D03*
X202607800Y-84582000D03*
%TD*%
D64*
%TO.C,C5*%
X191465200Y-116533400D03*
X191465200Y-119483400D03*
%TD*%
D65*
%TO.C,L1*%
X200775000Y-115330000D03*
X207135000Y-115330000D03*
%TD*%
D30*
%TO.C,D6*%
X196404000Y-94691200D03*
X197804000Y-94691200D03*
%TD*%
D54*
%TO.C,C28*%
X207175400Y-80721200D03*
X205625400Y-80721200D03*
%TD*%
D34*
%TO.C,J15*%
X227365400Y-59547200D03*
D35*
X227365400Y-57047200D03*
D36*
X225365400Y-55447200D03*
%TD*%
D20*
%TO.C,R22*%
X204954900Y-67296700D03*
X204954900Y-69121700D03*
%TD*%
D36*
%TO.C,J12*%
X225365400Y-75239200D03*
D35*
X227365400Y-76839200D03*
D34*
X227365400Y-79339200D03*
%TD*%
D25*
%TO.C,R14*%
X196543300Y-85699600D03*
X194718300Y-85699600D03*
%TD*%
D36*
%TO.C,J13*%
X225365400Y-65313200D03*
D35*
X227365400Y-66913200D03*
D34*
X227365400Y-69413200D03*
%TD*%
D27*
%TO.C,J5*%
X207700000Y-109000000D03*
%TD*%
D20*
%TO.C,R10*%
X196037200Y-124817500D03*
X196037200Y-126642500D03*
%TD*%
D31*
%TO.C,C21*%
X199896900Y-85902800D03*
X198171900Y-85902800D03*
%TD*%
D17*
%TO.C,C3*%
X191160400Y-121564400D03*
X194110400Y-121564400D03*
%TD*%
D66*
%TO.C,R7*%
X199542400Y-128601200D03*
X199542400Y-130251200D03*
%TD*%
D26*
%TO.C,Q5*%
X203519000Y-125145800D03*
X203519000Y-126415800D03*
X203519000Y-127685800D03*
X203519000Y-128955800D03*
X208469000Y-128955800D03*
X208469000Y-127685800D03*
X208469000Y-126415800D03*
X208469000Y-125145800D03*
%TD*%
D67*
%TO.C,F1*%
X197053200Y-141986000D03*
D68*
X197053200Y-133986000D03*
%TD*%
D62*
%TO.C,C1*%
X197455000Y-111455000D03*
X197455000Y-109905000D03*
%TD*%
D69*
%TO.C,D11*%
X201958400Y-108966000D03*
X199158400Y-108966000D03*
%TD*%
D70*
%TO.C,C22*%
X197561200Y-96268200D03*
X197561200Y-97993200D03*
%TD*%
D25*
%TO.C,R29*%
X214116600Y-45501400D03*
X215941600Y-45501400D03*
%TD*%
D71*
%TO.C,Q6*%
X198983600Y-69159200D03*
X198983600Y-67259200D03*
X197108600Y-68209200D03*
%TD*%
D72*
%TO.C,D5*%
X201446400Y-125222000D03*
X198146400Y-125222000D03*
%TD*%
D25*
%TO.C,R33*%
X215831900Y-65095200D03*
X214006900Y-65095200D03*
%TD*%
D43*
%TO.C,Q7*%
X201071000Y-67259200D03*
X201071000Y-69159200D03*
X202946000Y-68209200D03*
%TD*%
D32*
%TO.C,R4*%
X195505000Y-111392500D03*
X195505000Y-109567500D03*
%TD*%
D18*
%TO.C,C13*%
X204850000Y-106300000D03*
X204850000Y-100200000D03*
%TD*%
D20*
%TO.C,R24*%
X208991200Y-80928200D03*
X208991200Y-82753200D03*
%TD*%
%TO.C,R16*%
X199694800Y-87481400D03*
X199694800Y-89306400D03*
%TD*%
D32*
%TO.C,R19*%
X193118500Y-69123600D03*
X193118500Y-67298600D03*
%TD*%
D73*
%TO.C,C24*%
X200050400Y-75171000D03*
X200050400Y-76721000D03*
%TD*%
D74*
%TO.C,U4*%
X203849600Y-83464400D03*
X203849600Y-80924400D03*
X203849600Y-78384400D03*
X196149600Y-78384400D03*
X196149600Y-80924400D03*
X196149600Y-83464400D03*
%TD*%
%LPD*%
M02*
